<svg version="1.2" xmlns="http://www.w3.org/2000/svg" viewBox="0 0 1551 2325" width="1551" height="2325"><defs><linearGradient id="P" gradientUnits="userSpaceOnUse"/><radialGradient id="g1" cx="0" cy="0" r="1" href="#P" gradientTransform="matrix(-6736.294,3141.186,-3141.186,-6736.294,1812.581,-3977.047)"><stop stop-color="#ffe500"/><stop offset=".14" stop-color="#ffcb27"/><stop offset="1" stop-color="#ef3e23"/></radialGradient></defs><style>.a{fill:url(#g1)}</style><path fill-rule="evenodd" class="a" d="m840.7 0.8v172.6c216.7-11.6 405-73.8 525.4-165.1l67.2 92.1c-105.4 103.8-341.9 180.1-592.6 191.7v65.6c299.6 25.7 541.2 225.7 630 495.4-46.5-28.2-100.5-53.9-162.7-75.5-70.5-122-183.4-219.9-321.2-269.7 49.8 88 88 187.6 113.7 294.6 158.5 36.5 293.8 95.4 389.3 157.7 9.1 44 11.6 105.4 11.6 126.1 0 20.8-2.5 82.2-11.6 126.2-95.5 63-230.8 121.1-389.3 157.7-24.9 107-63.9 206.6-113.7 294.6 137.8-49.8 250.7-147.8 321.2-270.6 62.2-20.7 116.2-47.3 162.7-74.7-88.8 269.7-330.4 469.7-630 495.5v66.4c323.7 21.5 596.8 197.5 709.6 433.2h-146c-112.9-174.3-325.4-293.8-563.6-312.9v322.8h-131.9v-322.8c-238.2 19.1-450.7 138.6-563.6 312.9h-145.2c112-235.7 385.1-411.7 708.8-433.2v-66.4c-299.6-25.8-541.2-225.8-630-495.5 46.5 27.4 100.5 54 162.7 74.7 70.6 122.8 183.4 219.9 321.2 270.6-49.8-88-88.8-187.6-113.7-295.5-158.5-35.7-293-93.8-389.2-156.8-8.3-44-10.8-105.4-10.8-126.2 0-20.7 2.5-82.1 10.8-126.1 96.2-62.3 230.7-121.2 389.2-157.7 25.7-107 64.7-206.6 113.7-294.6-137.8 49.8-250.6 147.7-321.2 269.7-62.2 21.6-116.2 47.3-162.7 75.5 88.8-269.7 330.4-469.7 630-495.4v-65.6c-250.7-11.6-487.2-87.9-591.8-191.7l67.2-92.1c119.6 91.3 308 153.5 524.6 165.1v-172.6zm-263 779.3c63.1-9.1 129.5-14.1 197.5-14.1 68.1 0 133.7 5 197.6 14.1-32.4-114.5-81.4-218.3-143.6-307.1-18.3-0.8-35.7-2.5-54-2.5-19.1 0-36.5 1.7-53.9 2.5-63.1 88.8-112.1 192.6-143.6 307.1zm197.5 507.9c78 0 152.7-5.8 223.3-15.8 9.9-59.7 14.9-122 14.9-185.9 0-63.9-5-126.1-14.9-185.9-70.6-9.9-145.3-15.7-223.3-15.7-78 0-152.7 5.8-224.1 15.7-9.9 59.8-14.9 122-14.9 185.9 0 63.9 5 126.2 14.9 185.9 71.4 10 146.1 15.8 224.1 15.8zm347.8-39c96.3-22.4 182.6-54 253.9-92.1 1.7-21.6 3.4-51.5 3.4-70.6 0-19.9-1.7-48.9-3.4-70.5-71.3-37.4-157.6-68.9-253.9-92.1q9.9 79.6 9.9 162.6 0 83-9.9 162.7zm-695.5 0c-7.5-53.1-10.8-107.1-10.8-162.7 0-55.6 3.3-109.5 10.8-162.6-96.3 23.2-182.6 54.7-254 92.1-1.6 21.6-3.3 50.6-3.3 70.5 0 19.1 1.7 49 3.3 70.6 71.4 37.3 157.7 69.7 254 92.1zm347.7 157.7c-68 0-134.4-5-197.5-14.1 31.5 114.5 80.5 218.2 143.6 307 17.4 1.7 35.7 2.5 53.9 2.5 18.3 0 35.7-0.8 54-2.5 62.2-88.8 111.2-192.5 142.7-307-63 9.1-128.6 14.1-196.7 14.1z"/></svg>