<svg version="1.2" xmlns="http://www.w3.org/2000/svg" viewBox="0 0 1550 1549" width="1550" height="1549">
	<title>BOCHK-svg</title>
	<style>
		.s0 { fill: #bf063f } 
	</style>
	<g id="#bf063fff">
		<path id="Layer" fill-rule="evenodd" class="s0" d="m754.4 0h42c60.7 2.4 121.4 10.5 180.1 26.5 183.2 48.4 346.4 167.6 449 327 55.2 84.6 93.2 180.4 111.5 279.7 21.6 117.6 15.9 240-17.1 354.9-48.6 171.4-159.1 324.2-306.1 424.7-82.1 56.7-175.5 97.2-273 118.3-116.8 25.3-239.4 23.5-355.3-5.7-116.2-29.2-225.2-86.1-315.8-164.5-116-99.8-201.7-234.7-241.6-382.6-32.5-118.8-35.9-245.5-10.2-366 19.4-91.3 55.6-178.9 106.3-257.3 95.5-148.6 243.3-263.1 411.6-317.1 70.5-23.2 144.4-35.2 218.6-37.9zm-327.2 276.7c-78 54.5-142.7 127.7-187.6 211.6-49.6 92.3-74.2 197.7-71.4 302.4 2.5 90.3 25.1 180.1 66.6 260.5 34.3 67 81.3 127.6 137.7 177.4 87.1 78 197.4 129.2 313 146.6q0.1-142.5 0-285c-32.9 0-65.7 0-98.5 0-55.5-0.1-109.7-28-143.2-72.1-24.5-31.4-37.8-71.1-38.4-110.8q0.1-132.7 0-265.3c0.5-42.1 15.3-84.2 42.5-116.5 32.5-40 82.5-64.6 133.8-67 34.6-0.9 69.2-0.2 103.8-0.3 0-94.9 0.1-189.7-0.1-284.5-92.5 13.7-181.7 49.2-258.2 103zm437.9-103c-0.2 94.8-0.1 189.6-0.1 284.4 16.3 0 32.7 0 49 0 29.9 0.4 60.3-2.1 89.6 5.4 63.3 14.5 116.5 65.1 134.1 127.7 9.5 30 7.2 61.9 7.4 92.9 0 74.4 0.1 148.8 0 223.2-0.6 47.4-19.4 94.8-53.4 128.1-34.3 35.5-83.8 56.1-133.2 54.8-31.1 0-62.3 0-93.4 0-0.1 95-0.2 190.1 0 285.1 58.7-9.4 116.4-26.2 170.1-51.9 88.4-41.9 166.5-105.4 225.2-183.6 63.7-83.9 105-184.9 117.6-289.5 4.9-35.2 4.5-70.9 3.8-106.3-6.7-168.1-89.2-330.7-219-437.4-84.6-70.4-188.8-117-297.7-132.9zm-275 452.1c-9.6 0-18 8.9-17.1 18.6q-0.2 130.1 0 260.2c-0.8 10.2 8.7 19.1 18.8 18.6 122.3 0 244.5 0 366.8 0 10.2 0.9 19.8-8.1 19-18.5 0-86.7 0-173.5 0-260.2 1.2-10.5-8.6-19.7-19-18.8-122.8 0-245.6-0.2-368.5 0.1z"/>
	</g>
</svg>