<svg version="1.2" baseProfile="tiny-ps" xmlns="http://www.w3.org/2000/svg" viewBox="0 0 1579 1653" width="1579" height="1653">
	<title>China_Construction_Bank-svg-svg</title>
	<style>
		tspan { white-space:pre }
		.shp0 { fill: #2d64aa } 
	</style>
	<path id="path298" class="shp0" d="M1388.22 646.03L913.84 171.36C815.36 72.8 697.14 78.86 656.22 86.44C283.43 148.6 0 471.61 0 862.9C0 1298.11 351.62 1649.94 785.03 1649.94C1207.85 1649.94 1553.42 1311.76 1568.59 891.71C1568.59 887.19 1567.06 872.01 1556.48 865.96C1544.31 858.37 1518.56 861.37 1518.56 861.37L1215.43 861.37C1215.43 861.37 1186.68 861.37 1177.57 865.96C1171.52 868.96 1163.93 875.01 1163.93 875.01L794.14 1243.54C788.09 1249.6 778.97 1249.6 772.92 1243.54L400.13 870.49C394.01 864.43 394.01 855.31 400.13 849.26L772.92 476.2C778.97 470.14 788.09 470.14 794.14 476.2L1135.13 818.91C1135.13 818.91 1153.29 835.61 1169.99 838.61C1185.16 843.2 1207.85 826.5 1207.85 826.5L1388.22 646.03Z" />
	<path id="path300" fill-rule="evenodd" class="shp0" d="M1561 401.87L1306.38 148.6C1023.01 -125.84 695.61 63.69 695.61 63.69C695.61 63.69 835.06 -10.64 1012.37 177.41L1432.19 600.51L1556.48 477.73C1556.48 477.73 1571.59 459.5 1574.64 441.33C1577.64 424.63 1561 401.87 1561 401.87Z" />
</svg>