<svg version="1.2" xmlns="http://www.w3.org/2000/svg" viewBox="0 0 1547 890" width="1547" height="890">
	<title>download (8)-svg</title>
	<style>
		.s0 { fill: #255be3 } 
		.s1 { fill: #ff3c28 } 
	</style>
	<path id="Layer" class="s0" d="m0.2 604.2c0-159.9 130.8-284.4 301.1-284.4 98.6 0 188.6 44 240.1 110.5l-74 74.1c-19.6-25.1-44.6-45.5-73.2-59.7-28.6-14.1-59.9-21.6-91.8-21.9-101.8 0-183.2 76.2-183.2 181.4 0 106.3 81.4 182.5 183.2 182.5 33 0 65.6-7.7 95.1-22.4 29.6-14.7 55.3-36.1 75.3-62.4l72.9 71.9c-49.3 69.8-143.6 116-244.4 116-170.3 0-301.1-124.5-301.1-285.6zm641.9-265.1h116.8v531.4h-116.8zm334.3 388.5v-289.8h-127.5v-98.7h132.9v-113.8l109.3-53.7v167.5h173.6v98.7h-173.6v270.5c0 53.7 30 77.3 86.8 77.3 29.5 0.2 58.8-6.1 85.7-18.2v100.9c-33.7 14.8-70.3 22.1-107.1 21.4-104 0-180.1-56.9-180.1-162.1zm380.4-388.5h116.8v531.3h-116.8z"/>
	<path id="Layer" class="s1" d="m1056.8 1c95.9-0.3 190.5 22.6 275.7 66.7 85.3 44.1 158.7 108.1 214 186.6h-136.1c-44.6-49.7-99.1-89.4-160-116.6-61-27.2-126.9-41.2-193.6-41.2-66.7 0-132.6 14-193.6 41.2-60.9 27.2-115.4 66.9-160 116.6h-136.1c55.3-78.5 128.7-142.5 214-186.6 85.2-44.1 179.8-67 275.7-66.7z"/>
</svg>