<svg width="239" height="239.875" xmlns="http://www.w3.org/2000/svg">

 <g>
  <title>Layer 1</title>
  <path fill="#dd120b" id="svg_2" d="m9.433,117.39c0,-60.156 48.772,-108.938 108.945,-108.938c49.73,0 91.696,33.342 104.725,78.902l-46.492,0l-27.145,-67.692l-30.452,75.717l-31.07,-75.038l-57.563,141.879l23.498,33.07l129.99,0l22.49,-33.724l-2.882,-7.188l17.39,0c-15.153,41.967 -55.318,71.949 -102.489,71.949c-60.173,0 -108.945,-48.781 -108.945,-108.937m169.128,-25.195l45.822,0a107.81,107.81 0 0 1 1.148,5.526l-44.769,0l-2.2,-5.526m4.141,10.374l43.611,0c0.244,1.818 0.452,3.655 0.61,5.509l-42.01,0l-2.21,-5.51m4.16,10.357l40.356,0c0.052,1.488 0.087,2.977 0.087,4.465l0,1.053l-38.25,0l-2.193,-5.518m4.142,10.365l36.145,0c-0.096,1.854 -0.244,3.69 -0.436,5.509l-33.498,0l-2.21,-5.51m4.168,10.375l30.931,0c-0.278,1.854 -0.609,3.69 -0.966,5.51l-27.755,0l-2.21,-5.51m4.143,10.358l24.708,0a92.544,92.544 0 0 1 -1.549,5.509l-20.947,0l-2.21,-5.51m-121.115,-57.875l-31.123,76.074l123.698,0l-31.053,-76.414l-30.79,75.438l-30.733,-75.098l0.001,0zm434.769,42.476c-0.574,3.342 2.438,9.425 -2.61,10.948c-0.792,0.67 -1.497,1.767 -2.785,1.61c-1.2,-0.253 -2.236,-0.94 -3.177,-1.828c-1.036,-0.296 -2.236,-0.21 -3.168,-0.801c0.374,-3.124 0.122,-6.753 0.183,-9.756c1.062,-0.68 2.812,-0.427 3.96,-0.174c0.845,-0.427 2.49,0.06 3.412,-0.827c1.653,-0.313 2.784,0.532 4.185,0.828m-139.528,-1.854c0.54,0.46 1.166,0.635 1.784,0.844l-0.365,14.36c-3.83,2.063 -7.973,-0.418 -11.793,-0.166l-9.313,0.593c-1.506,-4.135 -1.41,-9.47 -0.792,-13.978l1.767,-1.82l18.712,0.167m288.386,-0.393c-0.217,2.385 3.56,2.672 2.776,5.083c-0.739,1.715 -2.75,1.357 -4.352,1.393c-1.079,-2.402 -2.41,1.314 -3.61,-0.81a4.09,4.09 0 0 1 -3.378,-2.61c-0.183,-1.263 0.183,-2.455 1.175,-3.056c0.845,-0.2 1.697,-0.365 2.411,-0.792c1.767,-0.043 3.552,-0.078 4.978,0.792m27.277,-5.691c-0.209,2.489 1.792,4.265 3.16,5.918c0.66,1.054 1.4,2.707 0.808,4.222c-1.19,1.349 -1.487,3.803 -3.603,4.063c-0.574,1.933 -2.776,1.428 -4.187,1.21c-0.66,-3.464 -0.409,-7.554 -0.174,-11.148c1.584,-1.471 -0.966,-6.806 3.003,-5.274l0.993,1.009m-159.634,-3.046c1.576,5.953 -0.46,11.932 0.21,18.25c-0.802,0.888 -0.984,2.333 -0.575,3.464c-1.088,3.639 1.662,8.799 -2.619,10.349c-1.114,0.139 -2.28,-0.044 -2.776,-1.001l0.2,-12.176c0.496,-0.636 0.67,-1.393 0.592,-2.245c-0.218,-5.057 -0.47,-10.688 0.21,-15.631c0.442,-0.662 1.156,-1.602 1.975,-1.82c1.165,-0.251 1.913,0.392 2.783,0.81m181.705,-5.657c-0.053,1.228 -1,1.523 -2.01,1.81c-2.978,2.673 -6.92,3.003 -9.73,6.093c-0.993,0.122 -1.532,1.437 -2.795,1.01c-1.6,-1.933 -3.142,-4.143 -4.177,-6.458c-0.366,-0.644 -0.13,-1.531 -0.2,-2.236c0.661,-1.95 2.646,-0.505 3.812,-1.228c2.733,0.33 4.64,-1.436 7.546,-0.81c1.775,-1 3.69,0.088 5.387,0.6c0.826,0.113 1.575,0.505 2.167,1.219m-48.938,-2.82c-0.078,0.244 0.453,0.584 0,0.784c0.496,1.453 -1.575,1.749 -1.984,3.063c-0.043,0.46 0.08,0.966 -0.409,1.209c-1.836,-0.296 -5.404,0.896 -5.195,-1.81c0.374,-1.28 -0.044,-3.03 1.41,-3.673c1.704,-1.392 4.89,-1.853 6.178,0.428m-150.26,-7.904c-0.165,3.882 0.244,7.555 0.375,11.323c0.452,1.088 2.445,1.767 1.41,3.246c-0.793,1.428 -2.664,0.714 -3.778,0.636l-6.188,-0.21c-1.019,-1.74 1.637,-2.958 1.793,-4.7c-0.66,-2.958 -1,-6.064 -1.984,-8.902c-0.244,-0.931 0.41,-1.488 0.618,-2.245c2.428,0 6.092,-1.89 7.754,0.852m-22.315,-0.852c1.444,1.279 0.496,3.56 1.192,5.083c-0.365,1.8 -0.645,3.498 -2.193,4.456c-2.098,1.453 -4.474,2.254 -7.162,2.463c-0.793,-0.392 -1.245,-1.28 -1.584,-2.028c-0.827,-3.298 3.115,-4.525 2.001,-7.945c0.75,-0.366 0.157,-1.271 0.983,-1.602c1.323,0.174 2.907,-0.218 3.986,-1.22c1.176,-0.251 1.907,0.375 2.777,0.793m41.384,0c0.626,2.872 -1.706,4.482 -2.576,6.719c-1.08,0.975 -2.307,2.115 -3.76,1.61c-1.593,-2.367 -5.31,-1.653 -4.996,-5.301c0.07,-1.427 -0.183,-3.246 1.02,-4.03c1.644,-0.138 3.297,-1.487 4.97,-0.391c1.574,0.975 3.801,0.392 5.342,1.393m-174.106,-5.45c0.783,2.237 2.045,4.657 4.561,5.284c2.245,0.66 4.804,1.479 5.387,4.22c-0.122,0.637 -0.452,1.176 -0.983,1.646c-3.873,0.932 -8.259,0.68 -12.367,1.019c-1.706,-0.505 -4.143,0.33 -5.179,-1.444c0.088,-5.065 3.473,-8.947 6.598,-12.542c1.408,-0.636 1.53,1.096 1.983,1.818m345.105,-3.463c-0.13,1.906 -0.374,4.013 -1.984,4.856c-3.829,0.888 -7.598,1.697 -11.793,1.645c-1.73,-0.713 -1.522,-2.941 -1.775,-4.682a7.735,7.735 0 0 1 1.775,-2.411c4.856,1.4 10.174,-4.78 13.777,0.592m-58.546,-5.874c0.113,1.175 0.078,1.958 -0.166,3.055c-1.427,-0.271 -2.654,0.452 -3.829,0.209c-0.026,-1.62 1.706,-2.455 1.628,-4.064c0.705,0.416 1.818,-0.09 2.367,0.8m27.702,-9.548c0.112,4.778 0.53,9.59 0.365,14.195c2.036,7.57 0.165,16.727 1.62,24.542c0,4.822 -0.906,10.27 0,15.214c0.286,1.688 -0.593,2.906 -0.619,4.473c-0.34,0.932 -0.957,1.775 -1,2.838c-2.62,2.567 -0.802,9.8 -6.546,8.32c-1.288,-0.94 -1.462,-2.707 -2.61,-3.848c0.374,-3.115 4.256,-4.647 4.177,-7.945c1.123,-4.43 -0.496,-9.277 0.618,-13.76c0.505,-0.427 0.505,-1.314 0.174,-1.82c-1.784,-1.74 -1.549,-4.872 -0.992,-7.101c0.131,-1.02 -0.296,-2.28 0.41,-3.046c0.34,-1.35 0.94,-2.567 0.991,-4.047c0.68,-2.794 0.427,-6.214 0.21,-9.13c-0.54,-1.148 -0.958,-2.454 -2.194,-3.037a558.528,558.528 0 0 0 -8.755,-1.82c-0.574,-0.547 -1.523,-0.504 -1.767,-1.426c-0.13,-1.158 0.061,-2.16 0.565,-3.055c1.914,0.043 3.324,-1.732 5.387,-0.801c1.201,0.087 2.916,1.305 3.786,0c-0.67,-3.935 2.48,-6.215 3.76,-9.33c0.662,-0.722 2.333,-0.513 2.42,0.584m-158.649,-4.43c0.661,0.835 0.417,2.28 0.217,3.255c-2.088,2.445 0.366,7.842 -4.412,8.103c-1.828,-0.714 -4.604,0 -5.335,-2.437c-1.288,-1.654 -3.255,-3.003 -2.62,-5.501l3.203,-3.42c1.984,-0.131 3.97,-1.523 5.962,-0.418c0.87,0.418 2.123,0 2.985,0.418m190.067,-2.663c0.365,0.635 0.131,1.53 0.21,2.245c-2.238,2.02 -4.109,5.857 -7.58,4.683c-0.915,-0.592 -2.125,-0.55 -3.152,-0.845l-0.217,0.227l-5.188,-0.392c0.096,-1.428 -0.409,-3.804 1.22,-4.691c2.062,-0.383 5.038,0.166 6.753,-1.818c2.768,1.096 5.561,-1.437 7.954,0.59m-324.784,-3.201c0.462,0.749 0.714,1.602 0.592,2.61c-0.47,0.593 -0.757,1.272 -0.792,2.028c-2.158,4.229 -5.474,7.938 -6.188,12.75c-2.48,3.012 -4.56,7.694 -8.947,7.737c-1.453,-0.723 -3.446,-2.29 -3.567,-4.047c1.035,-3.925 4.891,-6.72 5.761,-10.783c0.505,-3.281 -0.426,-7.224 1.593,-9.922c2.716,-1.305 6.876,0.122 9.73,-1.227c0.87,-0.286 1.201,0.54 1.818,0.854m-32.462,-0.635c0.992,2.063 2.28,4.473 1.21,6.875c-2.42,4.813 -5.44,9.39 -8.382,14.029c0.035,2.498 -1.079,4.518 -2.367,6.458c-1.148,1.097 -2.323,-0.331 -3.604,-0.2c-1.19,-3.342 -4.813,-5.196 -7.336,-7.484c-0.218,-1.654 0.948,-2.576 2.201,-3.255c3.107,0.46 5.266,-0.331 6.954,-3.03c2.454,-4.351 2.28,-9.851 4.77,-14.202c2.194,0.304 4.361,1.13 6.554,0.809m314.88,0.417c0.853,0.592 0.495,1.732 0.565,2.61c-1.897,1.106 -1.688,4.309 -4.178,4.483a12.884,12.884 0 0 0 -4.77,-1.811c-1.323,-1.357 -0.914,-3.168 -0.209,-4.691c1.288,-1.35 1.828,-4.647 4.596,-3.63c1.166,1.176 2.167,1.689 3.368,2.829l0.627,0.21m227.457,-17.231c0.627,0.853 0.452,2.279 0.218,3.246c-0.053,5.996 -1.584,11.366 -0.992,17.624c-2.002,1.392 -1,4.047 -2.41,5.7c-1.576,1.393 -4.239,0.679 -6.189,0.592c-6.502,-1.82 -13.508,0 -20.27,0c-8.086,-0.34 -15.292,1.436 -23.508,0.8c-0.383,0.497 -0.826,0.767 -1.366,0.793c-0.792,-1.471 -0.13,-3.612 -0.618,-5.24c-0.305,-4.812 -0.966,-9.485 -1,-14.395c-0.375,-1.01 -0.793,-2.036 -1.167,-3.037c0.166,-0.723 -0.409,-1.148 -0.2,-1.811c1.114,-1.244 2.898,-0.356 4.195,0c5.013,-1.026 9.364,1.967 13.916,-0.217c6.832,-0.601 12.933,2.358 20.078,1.009c4.308,-1.932 8.834,-3.211 12.776,-6.083c1.48,0 2.523,-1.767 4.134,-0.801c1.037,0.287 1.951,0.679 2.403,1.82m-63.097,-8.913c2.49,1.14 0.992,4.308 3.394,5.656c0.088,2.193 -1.54,3.639 -1.792,5.657c-1.314,1.94 -0.07,4.309 0.226,6.293c-0.975,4.36 1.784,8.363 0,12.593c-0.339,1.897 -1.01,3.63 -1.01,5.675c-2.358,1 -5.587,0.287 -7.17,2.819c0.46,1.81 -1.202,5.188 1.583,6.084c3.011,-0.035 5.396,2.872 6.371,5.274c2.367,-0.131 1.671,5.239 4.36,2.454c0.33,-1.192 0.496,-2.76 0.417,-3.847c-0.034,-0.845 -0.087,-2.358 0.792,-2.872l1.201,-0.383c10.522,0.896 20.618,-1.088 31.062,-0.418c6.754,-0.636 13.56,-1.132 20.48,-1.401c2.228,-1.228 5.134,-0.757 6.962,-3.037c1.357,-0.375 2.62,-0.723 3.185,-2.037l0.584,0c-1.367,5.37 -0.653,11.889 -0.584,17.633c0,2.437 -1.767,5.1 0,7.302c-0.069,0.574 0.166,1.35 -0.19,1.819c-1.332,-1.401 -3.08,-0.714 -4.778,-0.592c-2.82,-0.427 -4.935,1.593 -7.755,0.592c-3.925,-1.401 -8.337,-0.932 -12.14,0.418c-0.889,0.844 -0.828,2.027 -0.793,3.246c0.826,3.985 0.165,8.372 -0.218,12.34c1.55,3.683 0.383,8.539 1.01,12.595c-0.087,10.592 1.906,20.817 0.574,31.427c-0.783,1.306 -2.115,1.444 -3.359,1.602c-8.45,-0.714 -17.45,0.043 -25.29,-2.193c-0.984,-0.305 -2.116,-0.252 -2.986,-0.844c-0.627,-2.411 -3.308,-2.411 -3.978,-4.865c-0.46,-1.724 -0.905,-3.751 0.41,-5.283c0.451,-0.714 -0.245,-2.063 1.2,-1.811c2.402,0.296 4.37,2.455 6.971,1.646c2.411,-2.193 4.674,-4.256 5.971,-7.102c-1.54,-6.571 2.898,-11.15 0.783,-17.433c-0.696,-3.978 0.374,-7.737 0.574,-11.593c-0.574,-3.577 0.375,-7.798 -0.766,-11.148c-6.318,-1.506 -12.236,2.167 -18.503,0l-3.403,-0.366c-1.279,-2.532 2.568,-4.412 -0.199,-6.092c-3.447,-1.984 -3.194,2.62 -6.188,2.42c-0.374,1.896 -3.733,3.106 -2.768,5.482c0.661,2.115 -0.636,4.309 1.41,5.884c1.322,2.819 -0.923,5.64 0.374,8.52c-0.792,2.742 -0.087,5.414 -0.592,8.286l0.218,0.209c-0.6,2.4 0.374,5.36 -0.8,7.528c-1.07,6.535 1.47,13.847 -1.394,19.634c-0.6,2.149 -1.706,4.69 -4.195,5.074c-0.966,0.8 -0.966,2.149 -2.2,2.654c-4.344,1.479 -8.26,-0.714 -11.733,-2.654c-0.826,0.409 -1.07,-0.68 -1.784,-0.592c-0.8,-1.654 -2.819,-1.027 -4.203,-1.62c-0.967,-1.227 -4.334,-0.713 -3.177,-3.254c2.21,-0.792 4.481,-2.185 5.796,-4.256c0.662,-0.261 1.245,-1.271 1.584,-2.02c0.21,-2.132 0.244,-4.272 1.21,-6.092c2.071,-7.685 -1.584,-15.544 0.774,-23.106c-0.2,-1.401 -0.948,-2.907 -2.402,-3.464c-4.395,1.566 -6.336,7.015 -10.32,9.12c-2.368,0.13 -4.448,-0.426 -6.59,-0.8c-2.123,-1.941 -5.892,-2.872 -6.344,-5.884c-0.705,-1.001 -2.489,-0.87 -1.775,-2.654c-0.288,-0.627 -1.132,-0.383 -1.219,-1.01c0.748,-1.166 2.49,-1.82 3.568,-3.046c3.072,-0.035 4.986,-2.95 7.954,-3.203c2.863,-0.078 3.786,-3.594 6.397,-4.273c2.193,-2.672 5.762,-3.324 7.162,-6.701c1.662,-1.784 3.77,-3.386 3.77,-5.883c0.635,-1.02 2.123,-1.984 1.583,-3.63c-1.984,-0.888 -2.019,-3.594 -4.187,-3.847c-1.453,1.262 -2.654,3.212 -4.343,3.847c-0.644,2.41 -3.324,1.01 -4.194,2.82c-1,0.383 -2.27,0.139 -3.395,0.209c-0.374,-1.306 -1.862,-0.801 -2.794,-1.21c-0.983,-1.35 -3.307,-2.498 -2.776,-4.647l-1.192,-1.236l-0.217,-9.33c2.576,-1.601 5.31,-2.575 7.972,-3.846c0.87,-2.96 3.473,-0.75 4.961,-2.028c2.863,-2.82 6.771,-4.352 8.808,-7.902c2.28,-1.306 3.02,-4.3 5.135,-5.7c1.07,-1.56 1.044,-3.63 2.411,-5.065c0,-4.447 4.43,-6.972 5.552,-10.94c1.784,-1.984 3.647,-3.716 6.18,-3.847c0.54,-0.461 1.306,-1.305 1.984,-0.417c0.371,1.139 1.494,2.662 2.783,2.662m-172.166,-4.055c0.671,1.81 2.245,3.28 3.612,4.848c0.505,3.307 4.986,3.68 5.178,7.302c1.454,1.062 1.454,2.715 1.367,4.447c-0.662,0.93 -1.559,1.784 -1.367,3.037c1.367,1.019 1.784,2.916 3.786,2.454c1.15,0.592 2.307,0.549 3.568,0.209c3.342,-2.367 0.104,-6.38 1.976,-9.547c-0.33,-2.15 -0.365,-4.734 0.792,-6.51c4.195,1.696 7.92,4.48 11.357,7.945c3.36,0.296 5.98,-0.644 8.965,0l0.2,-0.218c3.655,0.636 8.05,-0.54 11.331,1.019c2.977,0.609 4.43,-2.576 7.372,-2.02c1.923,-2.201 4.561,-2.454 7.171,-2.846c1.288,-0.252 2.454,0.262 2.985,1.4c0.165,5.823 0.627,12.299 -0.409,17.868c-1.906,2.664 -1.175,6.476 -2.193,9.513c-0.8,3.412 -1.662,7.015 -1.575,10.558l-0.218,0.217c0.496,4.178 -0.156,8.86 0.627,12.959c-0.253,3.508 -2.785,6.093 -2.193,9.93c-0.383,0.81 -0.096,1.61 0.366,2.237c2.114,0.218 3.48,-1.305 4.97,-2.654c-0.157,-1.827 2.001,-2.158 2.21,-3.847c0.243,-0.88 1.062,0 1.61,0c1.444,1.688 4.612,2.28 3.76,5.283c-0.026,1.47 -1.35,3.168 0,4.465c-0.105,1.627 -1.48,3.22 -0.4,4.873c0.121,1.263 0.905,2.01 1.784,2.61c-0.627,0.81 -1.54,0.924 -2.35,1.236c-1.768,1.854 -3.743,3.072 -5.988,3.63c-3.899,-0.296 -7.955,-0.975 -11.732,-1.027c-1.079,0.853 -1.696,1.87 -1.427,3.272c4.17,5.17 11.253,3.96 16.353,7.302c3.151,0.078 6.467,1.646 9.53,0.209c0.54,3.769 -1.61,6.885 -1.993,10.514c-1.313,3.507 -4.49,6.345 -6.535,9.338c-2.994,1.314 -4.326,4.239 -6.798,6.51c-1.166,-0.295 -1.419,-2.454 -2.993,-2.245c-1.61,0.296 -1.61,-2.063 -3.15,-2.02c-1.28,-2.497 -4.475,-1.565 -5.597,-4.49c-0.879,-2.185 -3.186,-4.047 -4.56,-5.866c0,-2.071 -1.42,-3.507 -2.62,-5.064c-3.056,0.287 -2.68,4.473 -5.762,5.482c-4.396,3.264 -6.336,10.104 -12.307,10.73c-1.33,1.202 -3.359,0.68 -4.813,1.646c-3.272,2.21 -7.807,1.444 -11.114,3.646c-1,0.078 -1.87,-0.096 -2.619,-0.601c-0.618,-3.202 -2.829,-5.7 -2.35,-9.33c-0.958,-1.75 -2.707,-4.063 -4.822,-4.272c-3.315,0.252 -3.725,5.03 -7.119,5.065c-1.87,0.6 -3.742,1.14 -5.188,2.628c-2.55,0.383 -4.22,2.863 -6.605,3.673c-3.142,-1.523 -3.76,-5.37 -6.762,-7.311c-0.688,-2.994 -4.918,-3.246 -4.96,-6.667c-0.506,-2.498 -1.863,-4.561 -2.194,-7.11c0.122,-1.14 -1.123,-1.802 -0.174,-2.854c3.533,0.418 8.294,2.027 11.322,-0.601c2.863,-1.48 7.076,-0.801 8.381,-4.856c0.253,-1.645 0.531,-3.803 -1.2,-4.856c-0.87,-0.252 -2.246,-0.514 -3.003,0.166c-1.854,3.167 -5.004,5.796 -8.529,6.083a140.34,140.34 0 0 1 -1.218,-4.43l-0.192,-4.691c-1.287,-1.958 -0.79,-4.734 -1.2,-7.102c-0.375,-0.131 -0.13,-0.514 -0.2,-0.801c4.552,-0.14 9.816,0.349 14.343,-0.365c1.28,-1.366 0.783,-3.395 1.2,-5.083c-0.957,-1.993 -3.733,-0.601 -5.396,-0.435c-1.41,0.356 -3.116,0.6 -4.56,0.217c-1.837,-1.514 -2.29,-3.794 -4.188,-5.064c-2.41,0.896 -1.87,3.76 -2.784,5.665c-0.792,0.792 -1.61,1.566 -1.775,2.646c-0.496,0.26 -0.384,0.774 -0.409,1.2c-0.13,2.22 -3.917,2.898 -2.794,5.684c-0.035,0.644 -0.74,1.375 -1.41,1.41c-1.984,0.252 -3.22,-1.82 -4.769,-2.202c-1.098,-0.757 -1.219,-1.94 -1.977,-2.872c-2.715,-0.252 -5.273,-0.766 -7.18,-3.046c-0.209,-1.515 0.618,-3.97 -0.783,-5.24c-0.209,-2.488 2.785,-2.141 4.178,-3.245l12.941,-6.72c7.015,-13.298 15.257,-26.11 17.702,-41.356c1.897,-9.087 5.805,-17.311 5.97,-27.154c0.41,-1.062 1.706,-0.601 2.42,-0.427c1.776,1.784 4.265,3.595 5.127,5.919m-134.699,-3.673c1.28,1.088 3.882,0.252 4.396,2.027c0,1.68 -1.828,2.646 -2.01,4.256c-1.907,3.63 -6.337,6.18 -6.964,10.357c-0.252,4.517 5.021,1.427 7.346,2.628c5.518,1.749 11.035,-0.731 16.501,-0.227c4.856,-0.626 10.21,-0.043 14.352,-2.401c3.403,-0.896 7.66,-0.253 10.932,1c1.88,2.133 1.322,5.3 2.001,7.903c0,4.855 -2.977,8.407 -3.568,12.976c-0.217,1.132 -0.32,2.27 -1.418,3.038c-4.056,0.644 -7.163,-2.951 -11.14,-0.801c-0.827,0.426 -1.863,0.426 -2.776,0.6c-0.218,0 -0.462,-0.052 -0.592,0.2c-0.253,-0.495 -0.444,0.262 -0.827,0c-4.02,-0.626 -8.077,-1.262 -12.516,-1.018c-1.696,1.854 -2.2,4.195 -2.768,6.519c0.313,1.349 0.696,3.168 2.351,3.42c1.95,0.218 3.315,-0.931 4.978,-1.392c4.561,-0.21 8.956,-0.14 12.15,3.037c0.791,1.993 0.13,4.56 0.626,6.666c0.618,3.334 1.236,6.894 0.983,10.357c-0.86,0.296 0.044,1.349 -0.818,1.602c-1.305,10.095 0.696,20.278 0.61,30.635c-0.288,8.868 2.445,18.45 -0.775,26.562c-0.783,1.784 -0.052,4.352 -1.419,5.666c-6.753,1.097 -13.847,-0.557 -20.896,-0.592c-4.222,0.81 -8.329,-1.105 -11.94,-3.037c-2.089,0.888 -2.829,-1.523 -4.562,-1.454c1.332,-1.758 4.265,-2.472 4.561,-5.056c-0.209,-1.323 -0.183,-2.785 -1.575,-3.64c-6.466,-1.096 -13.689,-0.416 -20.53,-0.582c-0.992,-0.844 -2.358,-1.14 -2.977,-2.454c-0.427,-3.725 0.983,-7.476 -0.583,-10.723c0.078,-2.55 1.61,-5.152 0.21,-7.536c-0.619,-2.82 0.286,-5.527 0,-8.521c-1.638,-1.41 -3.49,-2.202 -5.606,-2.411c0.044,1.862 -0.496,4.013 -0.583,6.084c0.923,9.12 0.68,18.746 1.001,28.172c0.087,2.628 -1.41,5.16 -3.568,6.3c-2.28,-0.887 -3.072,1.855 -4.952,1.82c-3.594,-0.35 -6.744,-1.62 -9.982,-2.63c-0.817,-2.784 -0.113,-6.204 -0.609,-9.12l-0.208,-0.217l0.208,-0.21c-0.966,-3.002 0.166,-6.074 -0.208,-9.33c-0.122,-14.437 0.34,-28.894 -0.384,-43.393c-0.313,-3.96 -1.157,-7.686 0,-11.566c0.68,-1.314 0.131,-3.386 2.002,-4.056c5.301,-0.427 10.444,0.626 15.5,1.436c1.497,-0.461 3.612,0.296 4.404,-1.436c0.54,-2.934 -2.74,-4.222 -2.776,-6.885c-0.365,-0.722 -1.07,-0.505 -1.628,-0.792c-1.827,0.33 -3.429,1.715 -5.344,1.219c-6.544,1.175 -13.638,0.844 -19.895,2.62c-2.75,0.252 -2.785,-3.09 -4.613,-4.44c-0.774,-1.608 -0.078,-3.802 -0.583,-5.49c-4.352,-4.482 -3.838,-12.211 -2.402,-17.833c-0.13,-0.583 0.166,-1.01 0.418,-1.436c3.194,0.766 5.353,4.177 9.156,3.464c7.528,1.13 15.77,1.062 23.263,1.618c0.297,-0.348 0.914,-0.27 1.201,0c4.856,-0.305 9.791,-0.217 14.525,-0.81c0.827,-0.513 2.063,-0.217 2.402,-1.427c-1.035,-2.08 -3.359,-3.055 -4.56,-5.083c-0.836,-1.148 -2.01,-2.15 -2.985,-3.246c-0.13,-1.95 0.365,-4.238 -1,-5.666c-0.793,-1.48 -1.655,-3.202 -0.993,-5.064c3.063,-3.978 7.832,-0.94 12.314,-1.82c1.192,-0.34 2.271,-0.887 3.612,-1.018c4.342,-0.328 8.275,0.21 11.53,2.63m-193.862,0.21c0.88,0.209 2.08,-0.505 2.585,0.583c0.913,8.746 -0.87,17.867 0,26.57c1.48,2.663 5.048,1.68 7.58,1.653c1.297,-0.713 2.28,-1.731 2.985,-3.046c0.287,-2.881 -1.27,-4.952 -1.619,-7.52c-0.696,-2.741 -1.845,-5.23 -1.775,-8.33c0.87,-0.538 -0.069,-1.853 0.792,-2.392c9.365,2.185 19.635,2.236 29.277,3.829c1.323,0.339 2.516,0.983 3.96,1.019c0.505,0.217 0.592,-0.427 1.01,0c8.712,0.513 15.091,-4.813 24.082,-3.664c4.281,0.835 11.044,-1.393 12.114,4.265c0.21,1.758 -1.07,2.819 -1.166,4.464c-0.574,1.279 -0.86,2.629 -0.992,4.064c-2.533,9.47 -6.31,18.416 -8.172,28.173c-1.332,3.342 -2.985,6.51 -3.978,9.93c-2.654,2.498 -5.083,5.413 -7.163,8.329c-1.453,0.835 -3.95,-0.174 -4.56,1.819c-0.105,1.758 -0.13,3.455 1.583,4.464c4.047,0.514 9.095,1.019 12.507,-1.218c1.584,-0.14 3.402,0.034 3.978,1.427c0.2,5.448 -3.525,9.513 -2.142,15.213c-0.356,10.896 -0.635,22.768 1.767,33.029c-0.287,1.488 0.662,3.472 -0.792,4.48c-0.817,1.776 1.001,5.197 -1.609,5.667c-1.254,0.035 -2.576,1.219 -3.777,0.209c-6.188,-3.168 -14.047,-0.888 -20.679,-0.418c-5.03,-2.29 -12.193,-0.635 -17.337,-1.401c-0.252,0.079 -0.914,-0.087 -1.375,0l-10.147,0.6c-0.627,0.619 -1.637,0.375 -2.202,1.01c-2.202,0.593 -2.202,-2.357 -3.56,-3.463l-0.854,-0.81l-0.348,-30.783c0.48,-3.56 -0.218,-7.571 0.574,-11c-0.574,-4.1 -3.95,-6.632 -7.18,-8.903c-1.575,-0.583 -2.61,0.983 -3.15,2.019c-0.375,0.818 -0.322,1.819 -0.618,2.672c-1.332,5.84 0.026,12.037 -0.374,18.242c1.157,1.522 0.905,3.673 1.566,5.448c0.601,5.204 -0.453,10.183 -0.409,15.422c0.21,0.6 0.714,1.393 0.21,2.027c0.121,1.184 -0.079,2.707 -0.593,3.847c-0.496,1.105 -0.53,2.41 -1.61,3.247c-3.315,0.104 -7.258,-0.157 -10.739,0.217l-0.209,-0.217c-4.213,0.217 -9.974,1.688 -13.09,-2.028c-1.297,-1.602 -3.49,-2.646 -3.82,-4.848c1.453,-3.803 4.734,-6.475 7.963,-8.755c0.95,-0.113 2.106,0.348 2.812,-0.375c0.661,0.33 0.888,-0.557 1.375,-0.635c0.287,-4.378 0.287,-9.165 0,-13.56l0.218,-0.21c-0.305,-3.376 -0.514,-6.796 -2.42,-9.546c-0.2,-0.758 -1.035,-0.122 -1.366,-0.584c-2.663,2.063 -4.917,5.875 -8.58,5.875c-1.402,0.792 -2.864,1.566 -4.144,2.646c-1.297,1.184 -2.367,2.454 -3.194,3.847l-0.418,0c-1.61,-9.912 -9.45,-17.275 -8.746,-28.181c0.817,-1.854 3.567,-0.714 5.387,-1.001c5.353,-3.934 14.091,0.366 19.077,-4.481c3.395,-2.29 7.502,-5.666 6.38,-10.565c-0.374,-2.585 -1.332,-5.065 -3.568,-6.676c-2.94,-1.471 -4.396,2.532 -7.18,1.444c-0.854,-0.096 -2.402,0.166 -3.386,-0.217c-1.367,-0.758 -3.368,-0.55 -4.195,-2.237c0.122,-1.984 -0.069,-4.308 -0.574,-6.292c-1.41,-4.987 -4.552,-9.261 -4.178,-15.004c1.862,-0.845 3.23,0.722 5.18,0.217c5.386,-0.426 11.112,0.079 16.126,-1.227c1.697,-0.845 2.263,-2.237 2.985,-3.838c-0.053,-9.896 -5.806,-18.382 -2.62,-28.6c1.332,-0.391 2.402,-0.348 3.604,0.2c3.863,2.37 8.335,3.222 12.931,3.858zm-13.314,162.008l-1.088,0c-0.496,1.33 -1.35,1.688 -2.27,1.688c-0.584,0 -1.263,-0.2 -1.829,-0.4c-2.506,-0.923 -4.212,-1.288 -6.962,-1.332c-9.695,0 -16.467,6.302 -16.467,14.665c0,8.355 6.771,14.665 16.467,14.665c4.552,0 9.47,-1.906 12.22,-5.257l-1.21,-1.444c-2.516,2.55 -6.04,4.568 -10.593,4.568c-6.014,0 -7.728,-5.257 -7.728,-12.82c0,-7.554 1.714,-12.767 7.728,-12.767c5.292,0 9.008,4.212 10.645,7.998l1.088,0l0,-9.564m550.724,28.563l16.197,0l0,-0.983c-2.82,-0.078 -3.882,-0.278 -3.882,-3.551l0,-7.755l0.68,-0.53l6.978,8.816c0.775,1 1.228,1.775 1.228,2.088c0,0.854 -1.357,0.896 -2.27,0.932l0,0.983l14.725,0l0,-0.983c-1.81,-0.078 -2.724,-1.453 -3.673,-2.654l-11.192,-14.108l7.737,-6.553c1.35,-1.123 3.951,-2.611 6.405,-2.611l0,-0.975l-12.332,0l0,0.975c1.228,0 3.604,0 3.604,1.332c0,0.608 -1.27,2.089 -3.194,3.68l-8.694,7.269l0,-8.73c0,-3.271 1.062,-3.472 3.882,-3.55l0,-0.975l-16.197,0l0,0.975c2.83,0.078 3.855,0.278 3.855,3.55l0,18.826c0,3.272 -1.026,3.473 -3.855,3.55l0,0.982m-35.058,0l11.192,0l0,-0.983c-3.003,0.052 -5.005,-0.427 -5.005,-3.83l0,-17.204l23.116,22.74l1.088,0l0,-23.803c0,-2.454 0.966,-3.707 3.463,-3.83l0,-0.974l-10.383,0l0,0.975c2.794,0 4.734,0.453 4.734,3.829l0,11.846l-16.788,-16.65l-11.418,0l0,0.976c1.453,0.035 1.905,0.035 4.012,2.533l0,19.407c0,2.533 -1.01,3.864 -4.012,3.986l0,0.983m-27.44,-9.626l4.64,-9.416l4.96,9.416l-9.6,0m-9.155,9.626l10.748,0l0,-0.983c-1.906,0 -4.1,-0.235 -4.1,-2.385c0,-1.08 1.088,-3.595 1.697,-4.64l11.41,0l0.601,1.176c0.41,0.757 1.82,3.308 1.82,4.238c0,0.73 -0.567,1.254 -1.15,1.41c-0.548,0.165 -1.444,0.2 -2.507,0.2l0,0.983l17.294,0l0,-0.983c-1.67,0 -2.907,-0.801 -3.76,-2.054c-0.88,-1.254 -1.654,-2.83 -2.785,-4.926l-11.288,-20.645l-1.54,0l-11.428,22.898c-1.41,2.785 -1.74,4.369 -5.013,4.726l0,0.985m-30.034,0l12.872,0c1.228,0 3.646,0 5.144,-0.122c6.24,-0.487 11.201,-2.358 11.201,-7.841c0,-2.516 -2.358,-4.813 -4.596,-5.71c-1.549,-0.592 -3.142,-1.08 -4.777,-1.253c0.826,-0.191 1.723,-0.383 3.011,-0.932c2.62,-1.08 4.447,-2.924 4.447,-5.596c0,-2.628 -1.13,-3.725 -2.419,-4.7c-2.124,-1.653 -5.979,-1.731 -10.278,-1.731l-14.604,0l0,0.975c2.83,0.078 3.855,0.278 3.855,3.55l0,18.826c0,3.272 -1.026,3.473 -3.855,3.55l0,0.984m12.323,-25.265c0,-0.67 0.321,-1.191 1.74,-1.191c0.688,0 2.037,0.034 2.95,0.748c1.41,1.105 1.82,2.924 1.82,4.813c0,4.518 -2.446,5.405 -4.735,5.405l-1.775,0l0,-9.775m0,11.192l1.976,0c3.098,0 6.092,1.54 6.092,6.432c0,3.56 -1.14,6.23 -5.787,6.23c-2.046,0 -2.28,-0.208 -2.28,-2.845l0,-9.817m-46.11,14.796l1.191,0c0.218,-0.774 0.592,-1.21 1.575,-1.21c1.244,0 3.925,1.21 7.023,1.21c6.605,-0.096 11.235,-3.804 11.235,-9.261c0,-3.106 -1.897,-6.092 -5.727,-7.876l-5.778,-2.663c-2.185,-1.01 -4.29,-2.011 -4.29,-4.525c0,-2.142 2.062,-3.395 4.377,-3.395c4.23,0 7.467,3.769 8.241,7.154l1.228,0l-0.27,-8.765l-1.279,0c-0.044,0.8 -0.784,1.123 -1.54,1.123a4.655,4.655 0 0 1 -1.559,-0.27c-1.584,-0.618 -3.855,-0.854 -4.874,-0.854c-5.587,0 -9.556,3.595 -9.556,8.52c0,3.605 1.827,5.9 5.744,7.843l4.995,2.463c2.29,1.132 4.291,2.254 4.291,4.76c0,2.682 -2.463,4.135 -5.475,4.135c-4.726,0 -7.824,-4.291 -8.59,-8.007l-1.235,0l0.272,9.618m-25.352,-0.723l17.842,0l0,-0.983c-3.412,-0.078 -4.69,-0.688 -4.69,-3.508l0,-20.887c0,-0.888 0.277,-0.888 1.592,-0.888c4.316,0 6.954,2.332 7.66,5.97l1.087,0l-0.366,-7.59l-28.398,0l-0.374,7.59l1.097,0c0.68,-3.638 3.325,-5.97 7.65,-5.97c1.314,0 1.584,0 1.584,0.888l0,20.887c0,2.82 -1.27,3.43 -4.683,3.508l0,0.983m-39.87,0l11.184,0l0,-0.983c-3.003,0.052 -4.995,-0.427 -4.995,-3.83l0,-17.205l23.115,22.74l1.097,0l0,-23.803c0,-2.454 0.957,-3.707 3.455,-3.83l0,-0.974l-10.383,0l0,0.975c2.776,0 4.743,0.453 4.743,3.829l0,11.846l-16.797,-16.65l-11.419,0l0,0.976c1.462,0.035 1.915,0.035 4.004,2.533l0,19.407c0,2.533 -1,3.864 -4.004,3.986l0,0.983m-27.449,-9.626l4.656,-9.416l4.952,9.416l-9.608,0m-9.148,9.626l10.748,0l0,-0.983c-1.914,0 -4.099,-0.235 -4.099,-2.385c0,-1.08 1.097,-3.595 1.688,-4.64l11.418,0l0.584,1.176c0.417,0.757 1.827,3.308 1.827,4.238c0,0.73 -0.548,1.254 -1.132,1.41c-0.557,0.165 -1.462,0.2 -2.497,0.2l0,0.983l17.284,0l0,-0.983c-1.688,0 -2.916,-0.801 -3.786,-2.054c-0.86,-1.254 -1.627,-2.83 -2.776,-4.926l-11.279,-20.645l-1.54,0l-11.444,22.898c-1.393,2.785 -1.706,4.369 -4.996,4.726l0,0.985m-37.188,0l16.196,0l0,-0.983c-2.837,-0.078 -3.873,-0.278 -3.873,-3.551l0,-8.973l11.75,0l0,8.973c0,3.272 -1.045,3.473 -3.864,3.55l0,0.984l16.188,0l0,-0.983c-2.81,-0.078 -3.864,-0.278 -3.864,-3.551l0,-18.825c0,-3.272 1.054,-3.473 3.864,-3.551l0,-0.975l-16.188,0l0,0.975c2.82,0.078 3.864,0.278 3.864,3.55l0,8.008l-11.75,0l0,-8.007c0,-3.272 1.036,-3.473 3.873,-3.551l0,-0.975l-16.196,0l0,0.975c2.812,0.078 3.873,0.278 3.873,3.55l0,18.826c0,3.272 -1.062,3.473 -3.873,3.55l0,0.984m-1.88,-28.563l-1.088,0c-0.505,1.33 -1.357,1.688 -2.263,1.688c-0.6,0 -1.279,-0.2 -1.827,-0.4c-2.516,-0.923 -4.239,-1.288 -6.972,-1.332c-9.686,0 -16.476,6.302 -16.476,14.665c0,8.355 6.79,14.665 16.476,14.665c4.552,0 9.47,-1.906 12.202,-5.257l-1.219,-1.444c-2.498,2.55 -6.022,4.568 -10.565,4.568c-6.015,0 -7.737,-5.257 -7.737,-12.82c0,-7.554 1.723,-12.767 7.737,-12.767c5.257,0 9,4.212 10.644,7.998l1.088,0l0,-9.564m-51.296,4.264c0,-1.488 0.183,-2.158 2.506,-2.158c3.882,0 5.831,2.523 5.831,5.892c0,4.403 -3.237,6.049 -7.37,6.049l-0.967,0l0,-9.783m-12.324,24.299l16.206,0l0,-0.983c-2.829,-0.078 -3.882,-0.278 -3.882,-3.551l0,-8.564l1.366,0l8.746,13.099l10.558,0l0,-0.983c-0.636,0 -1.097,-0.122 -1.819,-0.844c-0.73,-0.731 -1.688,-2.02 -3.42,-4.396l-5.5,-7.642c3.594,-0.888 7.231,-3.272 7.231,-6.91c0,-3.603 -3.046,-5.857 -6.745,-6.614c-2.132,-0.452 -7.37,-0.496 -12.428,-0.496l-10.313,0l0,0.975c2.82,0.078 3.864,0.278 3.864,3.55l0,18.826c0,3.272 -1.044,3.473 -3.864,3.55l0,0.983m-31.819,0l27.658,0l1.775,-8.442l-1.088,-0.261c-0.183,0.618 -1,2.48 -2.314,3.847c-3.055,3.186 -5.379,3.237 -10.052,3.237c-3.465,0 -3.647,-0.53 -3.647,-3.49l0,-8.833c5.014,0 6.693,2.054 7.285,6.17l1.088,0l0,-13.76l-1.088,0c-0.592,4.117 -2.27,6.18 -7.285,6.18l0,-8.808c0,-2.027 0.592,-2.105 2.83,-2.105l2.905,0c5.553,0 7.686,2.14 8.19,6.257l1.087,0l0,-7.876l-27.345,0l0,0.975c2.812,0.078 3.864,0.278 3.864,3.55l0,18.826c0,3.272 -1.053,3.473 -3.864,3.55l0,0.983m-42.462,0l9.957,0l0,-0.983c-3.917,0 -4.282,-1.42 -4.282,-4.525l0,-18.903l10.714,24.412l1.48,0l11.287,-24.412l0.087,19.878c0,3.272 -1.027,3.473 -3.855,3.55l0,0.984l15.734,0l0,-0.983c-2.81,-0.078 -3.855,-0.278 -3.855,-3.551l0,-18.825c0,-3.272 1.045,-3.473 3.855,-3.551l0,-0.975l-12.559,0l-8.18,17.894l-7.738,-17.894l-12.645,0l0,0.975c2.263,0.078 3.508,0.313 3.508,3.099l0,17.667c0,4.734 -1.288,5.16 -3.508,5.16l0,0.983m-37.919,-9.626l4.621,-9.416l4.97,9.416l-9.59,0m-9.157,9.626l10.75,0l0,-0.983c-1.925,0 -4.092,-0.235 -4.092,-2.385c0,-1.08 1.08,-3.595 1.68,-4.64l11.418,0l0.584,1.176c0.417,0.757 1.81,3.308 1.81,4.238c0,0.73 -0.539,1.254 -1.113,1.41c-0.558,0.165 -1.472,0.2 -2.516,0.2l0,0.983l17.302,0l0,-0.983c-1.697,0 -2.916,-0.801 -3.795,-2.054c-0.853,-1.254 -1.618,-2.83 -2.759,-4.926l-11.288,-20.645l-1.549,0l-11.419,22.898c-1.4,2.785 -1.73,4.369 -5.013,4.726l0,0.985m-33.81,0l11.191,0l0,-0.983c-3.02,0.052 -5.005,-0.427 -5.005,-3.83l0,-17.205l23.107,22.74l1.097,0l0,-23.803c0,-2.454 0.957,-3.707 3.464,-3.83l0,-0.974l-10.374,0l0,0.975c2.768,0 4.726,0.453 4.726,3.829l0,11.846l-16.797,-16.65l-11.41,0l0,0.976c1.462,0.035 1.897,0.035 3.995,2.533l0,19.407c0,2.533 -1.01,3.864 -3.995,3.986l0,0.983m-16.667,0l16.206,0l0,-0.983c-2.829,-0.078 -3.855,-0.278 -3.855,-3.551l0,-18.825c0,-3.272 1.026,-3.473 3.855,-3.551l0,-0.975l-16.206,0l0,0.975c2.83,0.078 3.873,0.278 3.873,3.55l0,18.826c0,3.272 -1.044,3.473 -3.873,3.55l0,0.984m-36.918,0l16.205,0l0,-0.983c-2.82,-0.078 -3.873,-0.278 -3.873,-3.551l0,-8.973l11.724,0l0,8.973c0,3.272 -1.027,3.473 -3.848,3.55l0,0.984l16.206,0l0,-0.983c-2.82,-0.078 -3.882,-0.278 -3.882,-3.551l0,-18.825c0,-3.272 1.062,-3.473 3.882,-3.551l0,-0.975l-16.206,0l0,0.975c2.82,0.078 3.848,0.278 3.848,3.55l0,8.008l-11.724,0l0,-8.007c0,-3.272 1.053,-3.473 3.873,-3.551l0,-0.975l-16.204,0l0,0.975c2.82,0.078 3.873,0.278 3.873,3.55l0,18.826c0,3.272 -1.054,3.473 -3.873,3.55l0,0.984l-0.001,0z"/>
 </g>
</svg>