<svg version="1.2" xmlns="http://www.w3.org/2000/svg" viewBox="0 0 1552 1396" width="1552" height="1396">
	<title>2356</title>
	<style>
		.s0 { fill: #ce0058 } 
	</style>
	<path class="s0" d="m1266.4 1393.9h-975.5c-161.6 0-290.5-131.5-290.5-292.7 0-161.2 128.9-292.3 288.4-292.3h316.4l-305.4 305.1 156.9 156.9 318.6-318.1 319.2 318.1 157-156.9-305.8-305.1h316.5c159.4 0 288.7 131.1 288.7 292.3 0 161.2-127.2 292.7-284.5 292.7zm-4.2-806.4h-374.6v-419.2h-223.9v419.2h-374.9c-159.5 0-288.4-131.1-288.4-292.7 0-160.9 128.9-292 286.3-292h975.5c159.4 0 286.3 131.1 286.3 292 2.4 161.6-126.9 292.7-286.3 292.7z"/>
</svg>