<?xml version="1.0" encoding="UTF-8"?>
<svg version="1.1" xmlns="http://www.w3.org/2000/svg" width="373" height="239">
<path d="M0 0 C123.09 0 246.18 0 373 0 C373 78.87 373 157.74 373 239 C249.91 239 126.82 239 0 239 C0 160.13 0 81.26 0 0 Z " fill="#FDFDFD" transform="translate(0,0)"/>
<path d="M0 0 C123.09 0 246.18 0 373 0 C373 78.87 373 157.74 373 239 C249.91 239 126.82 239 0 239 C0 160.13 0 81.26 0 0 Z M3 3 C3 79.89 3 156.78 3 236 C78.03087106 236 135.39537282 229.67360072 204.17944336 207.49072266 C211.10678335 205.25976652 218.07133637 203.20447194 225.078125 201.23828125 C228.9454664 200.08220413 232.64494383 198.58076394 236.37939453 197.05541992 C239.87136285 195.64906823 243.40171288 194.35835036 246.93505859 193.06030273 C312.85761103 170.54982819 312.85761103 170.54982819 370 133 C370 90.1 370 47.2 370 3 C248.89 3 127.78 3 3 3 Z " fill="#F96604" transform="translate(0,0)"/>
<path d="M0 0 C123.09 0 246.18 0 373 0 C373 78.87 373 157.74 373 239 C249.91 239 126.82 239 0 239 C0 160.13 0 81.26 0 0 Z M3 3 C3 80.22 3 157.44 3 237 C124.44 237 245.88 237 371 237 C371 159.78 371 82.56 371 3 C249.56 3 128.12 3 3 3 Z " fill="#0D0D0D" transform="translate(0,0)"/>
<path d="M0 0 C6.47508251 6.47508251 8.92570675 12.35528786 9.1875 21.4375 C9.10458794 29.42193124 7.29399472 34.89303473 1.98046875 40.875 C-5.26541379 47.73500714 -12.05281293 49.40858866 -21.9296875 49.16796875 C-28.78445494 48.4200265 -35.33396971 45.80470258 -40.1875 40.8125 C-46.29580196 32.23303314 -47.31016855 24.15029923 -46.1875 13.8125 C-44.36719214 6.9219688 -40.48988955 2.27928819 -34.70703125 -1.77734375 C-23.3619873 -8.12705052 -10.62526642 -7.2918495 0 0 Z " fill="#FFAE78" transform="translate(214.1875,66.1875)"/>
<path d="M0 0 C28.35866983 0 28.35866983 0 38 9 C43.17561394 15.50269443 43.45431895 23.21951638 42.81640625 31.3359375 C41.62308551 37.56088901 37.94885724 42.63732533 33.07421875 46.54296875 C22.52256383 53.52959851 13.18183488 52 0 52 C0 34.84 0 17.68 0 0 Z " fill="#080B0B" transform="translate(24,62)"/>
<path d="M0 0 C23 0 23 0 31 5 C34.17348809 9.46271762 34.77696834 13.67829902 34 19 C32.04614079 24.34740414 29.08763713 27.45618143 24 30 C25.34515428 32.87609453 26.87971009 35.31055141 28.8203125 37.8203125 C29.35527344 38.52027344 29.89023437 39.22023437 30.44140625 39.94140625 C31.57049297 41.40581339 32.70071517 42.8693457 33.83203125 44.33203125 C34.36441406 45.02941406 34.89679688 45.72679687 35.4453125 46.4453125 C35.93531738 47.07969238 36.42532227 47.71407227 36.93017578 48.36767578 C38 50 38 50 38 52 C33.21600947 53.40935891 29.73951804 53.67508954 25 52 C19.48715852 46.27939526 15.77703596 38.92353564 12 32 C11.67 38.6 11.34 45.2 11 52 C7.37 52 3.74 52 0 52 C0 34.84 0 17.68 0 0 Z " fill="#080B0B" transform="translate(310,62)"/>
<path d="M0 0 C6.47508251 6.47508251 8.92570675 12.35528786 9.1875 21.4375 C9.10458794 29.42193124 7.29399472 34.89303473 1.98046875 40.875 C-5.26541379 47.73500714 -12.05281293 49.40858866 -21.9296875 49.16796875 C-28.78445494 48.4200265 -35.33396971 45.80470258 -40.1875 40.8125 C-46.29580196 32.23303314 -47.31016855 24.15029923 -46.1875 13.8125 C-44.36719214 6.9219688 -40.48988955 2.27928819 -34.70703125 -1.77734375 C-23.3619873 -8.12705052 -10.62526642 -7.2918495 0 0 Z M-35.1875 8.8125 C-38.8915643 15.93200021 -40.31021263 22.96990303 -38.1875 30.8125 C-36.86147647 33.1224038 -36.86147647 33.1224038 -35.1875 34.8125 C-34.5275 34.8125 -33.8675 34.8125 -33.1875 34.8125 C-32.8575 35.8025 -32.5275 36.7925 -32.1875 37.8125 C-25.35712921 41.5173663 -17.82887196 41.86170887 -10.5 39.75 C-6.94420996 37.67019828 -4.93277457 35.56115794 -2.44921875 32.3359375 C-1.1875 30.8125 -1.1875 30.8125 0.8125 29.8125 C0.86661124 27.39553128 0.90622278 24.97978213 0.9375 22.5625 C0.95425781 21.88058594 0.97101563 21.19867188 0.98828125 20.49609375 C1.02463482 16.7516765 0.89194349 13.98897273 -1.1875 10.8125 C-1.8475 10.8125 -2.5075 10.8125 -3.1875 10.8125 C-3.42210937 10.04550781 -3.65671875 9.27851562 -3.8984375 8.48828125 C-6.14314603 3.82881052 -10.50295534 2.50279962 -15.1875 0.8125 C-22.61281878 -0.89682753 -30.41490901 3.12054304 -35.1875 8.8125 Z " fill="#FF7214" transform="translate(214.1875,66.1875)"/>
<path d="M0 0 C0 4.26826873 -0.37613513 4.93882432 -3 8 C-3.845625 7.67 -4.69125 7.34 -5.5625 7 C-9.74266888 5.78395087 -13.97751725 4.98875862 -18 7 C-18 8.98 -18 10.96 -18 13 C-16.845 13.5775 -15.69 14.155 -14.5 14.75 C-13.40751953 15.30300781 -13.40751953 15.30300781 -12.29296875 15.8671875 C-10.83070893 16.58959865 -9.35480794 17.28544146 -7.86328125 17.9453125 C-3.02317215 20.13949529 0.20901431 22.29021165 3 27 C4.1208303 32.91163593 3.23745133 38.09416936 0.27734375 43.30859375 C-2.42632335 46.88867893 -5.83489528 48.61163176 -10 50 C-16.7709036 50.76569185 -21.74885861 50.42369694 -27.33984375 46.37109375 C-29.38690418 44.68046267 -31.3037974 43.04957814 -33 41 C-33 40.34 -33 39.68 -33 39 C-27.52380952 34 -27.52380952 34 -25 34 C-24.29875 34.825 -23.5975 35.65 -22.875 36.5 C-19.9279171 39.06268078 -19.50211877 39.37749252 -15.875 39.4375 C-11.9436485 39.29310188 -11.9436485 39.29310188 -9 37 C-8.74984127 33.41642759 -8.74984127 33.41642759 -9 30 C-10.155 29.4225 -11.31 28.845 -12.5 28.25 C-13.22703125 27.88390625 -13.9540625 27.5178125 -14.703125 27.140625 C-16.18444829 26.40500187 -17.67366939 25.68497475 -19.171875 24.984375 C-23.09336509 23.12682706 -26.21839624 21.44918867 -29 18 C-30.35593231 13.93220306 -30.53075585 10.25331741 -30 6 C-27.96550334 2.07632788 -25.81650072 -0.7339527 -22 -3 C-13.82694618 -5.47985821 -7.22157087 -4.2794494 0 0 Z " fill="#060808" transform="translate(118,65)"/>
<path d="M0 0 C9.57 0 19.14 0 29 0 C29 2.97 29 5.94 29 9 C22.73 9 16.46 9 10 9 C10 12.63 10 16.26 10 20 C15.94 20 21.88 20 28 20 C28 22.97 28 25.94 28 29 C22.06 29 16.12 29 10 29 C10 33.62 10 38.24 10 43 C16.27 43 22.54 43 29 43 C29 45.97 29 48.94 29 52 C19.43 52 9.86 52 0 52 C0 34.84 0 17.68 0 0 Z " fill="#030404" transform="translate(275,62)"/>
<path d="M0 0 C3.96 0 7.92 0 12 0 C12.35827881 0.93384521 12.71655762 1.86769043 13.08569336 2.82983398 C14.41178319 6.2841584 15.74136429 9.73712998 17.07202148 13.18969727 C17.64817578 14.68607317 18.2233741 16.18281751 18.79760742 17.67993164 C19.62169195 19.82795524 20.44917074 21.97464372 21.27734375 24.12109375 C21.53466782 24.79401962 21.79199188 25.4669455 22.05711365 26.16026306 C23.12532781 29.32029351 23.12532781 29.32029351 25 32 C25.35827881 31.10168457 25.71655762 30.20336914 26.08569336 29.27783203 C27.41359649 25.94903269 28.74263595 22.62068804 30.07202148 19.29248047 C30.6475278 17.85119836 31.22272474 16.40979269 31.79760742 14.96826172 C32.62337487 12.897787 33.45024924 10.82775739 34.27734375 8.7578125 C34.53466782 8.11192169 34.79199188 7.46603088 35.05711365 6.80056763 C35.9783215 4.49740315 36.89009622 2.21980755 38 0 C41.63 0 45.26 0 49 0 C48.11750238 4.41248811 46.8245441 8.10129556 45.05078125 12.1796875 C44.75568161 12.86950714 44.46058197 13.55932678 44.15653992 14.27005005 C43.21303087 16.47366547 42.26315168 18.6744577 41.3125 20.875 C40.07690302 23.74631665 38.84418852 26.61885748 37.61328125 29.4921875 C37.3116507 30.19551208 37.01002014 30.89883667 36.69924927 31.62347412 C33.67696395 38.70036679 30.82029879 45.84062943 28 53 C25.69 53 23.38 53 21 53 C20.56171875 51.89269531 20.1234375 50.78539062 19.671875 49.64453125 C16.44594641 41.52549612 13.18732719 33.42195592 9.83203125 25.35546875 C9.56190216 24.70560501 9.29177307 24.05574127 9.01345825 23.38618469 C7.66314517 20.13959254 6.30900711 16.89465532 4.95019531 13.65161133 C4.45229492 12.45689209 3.95439453 11.26217285 3.44140625 10.03125 C2.99482666 8.96455078 2.54824707 7.89785156 2.08813477 6.79882812 C1 4 1 4 0 0 Z " fill="#040606" transform="translate(221,62)"/>
<path d="M0 0 C0 3.96 0 7.92 0 12 C-2.00855274 10.99572363 -4.01798274 9.98999777 -5.98046875 8.8984375 C-10.10528479 7.06341296 -14.74469413 7.26438266 -19 8.65234375 C-22.83040455 10.57580121 -25.39429034 13.0295875 -27.34375 16.9453125 C-29.01662629 22.1830085 -28.72891236 27.74253931 -26.8125 32.875 C-24.53827187 36.79608298 -22.03059473 38.98470264 -18 41 C-10.84651358 41.81108303 -6.15348963 40.64651238 0 37 C0.08082094 38.95766281 0.13910778 40.91626728 0.1875 42.875 C0.23970703 44.51082031 0.23970703 44.51082031 0.29296875 46.1796875 C0.19628906 47.11039063 0.09960938 48.04109375 0 49 C-5.6013866 52.73425774 -12.43922397 52.79045494 -19 52 C-26.80871016 49.23878707 -33.40435467 45.00514368 -37.3125 37.5625 C-40.81845652 30.10553031 -41.57170422 23.13853982 -39.14453125 15.203125 C-35.91794295 7.93504214 -30.62348259 2.41511722 -23.375 -0.9375 C-15.79063502 -3.38017818 -7.27161761 -2.90864705 0 0 Z " fill="#060808" transform="translate(164,63)"/>
<path d="M0 0 C11.45945946 0 11.45945946 0 16 4 C20.36165714 8.95107026 21.36180839 11.83373249 21.27734375 18.328125 C20.69732715 23.91589058 18.40644862 27.62785501 14.4375 31.5 C11 33 11 33 0 33 C0 22.11 0 11.22 0 0 Z " fill="#FBFCFC" transform="translate(35,71)"/>
<path d="M0 0 C3.63 0 7.26 0 11 0 C11 17.16 11 34.32 11 52 C7.37 52 3.74 52 0 52 C0 34.84 0 17.68 0 0 Z " fill="#0D1212" transform="translate(71,62)"/>
<path d="M0 0 C0.96099609 0.15662109 0.96099609 0.15662109 1.94140625 0.31640625 C1.94140625 0.97640625 1.94140625 1.63640625 1.94140625 2.31640625 C2.93140625 2.31640625 3.92140625 2.31640625 4.94140625 2.31640625 C4.94140625 2.97640625 4.94140625 3.63640625 4.94140625 4.31640625 C7.41640625 4.81140625 7.41640625 4.81140625 9.94140625 5.31640625 C11.33292509 10.53460192 12.50865447 17.30293284 9.9296875 22.26171875 C7.7995076 24.91005052 6.17919822 26.23714226 2.94140625 27.31640625 C1.29861408 27.43433624 -0.34912069 27.49152299 -1.99609375 27.50390625 C-2.85074219 27.51808594 -3.70539063 27.53226563 -4.5859375 27.546875 C-7.95374507 27.23297192 -10.10732747 26.05628002 -12.74609375 24.00390625 C-14.50773669 21.73893675 -14.74088353 20.17579821 -15.05859375 17.31640625 C-15.22359375 16.07890625 -15.38859375 14.84140625 -15.55859375 13.56640625 C-15.4672508 8.78003562 -13.28628986 5.63647162 -10.28125 2.0390625 C-6.91222169 -0.57208247 -4.1227212 -0.38708113 0 0 Z " fill="#FFBE93" transform="translate(198.05859375,73.68359375)"/>
<path d="M0 0 C0 0.66 0 1.32 0 2 C1.093125 2.268125 2.18625 2.53625 3.3125 2.8125 C6.87044379 3.95827851 7.59888723 4.48974574 10 7 C10.804375 7.04125 11.60875 7.0825 12.4375 7.125 C15.49806068 8.1700695 15.82663764 8.77519082 17.3125 11.5625 C19.99035378 18.47844468 20.11353945 25.75830634 19 33 C16.41501079 38.33902403 13.25439394 41.41771238 8 44 C7.505 44.99 7.505 44.99 7 46 C1.34706502 48.75007648 -4.86239223 48.54105633 -11 48 C-14.375 46.8125 -14.375 46.8125 -17 45 C-18.03125 44.319375 -19.0625 43.63875 -20.125 42.9375 C-23.56263122 40.00513741 -24.7730773 36.28860652 -26.23828125 32.109375 C-26.81575089 30.04261339 -26.81575089 30.04261339 -28 29 C-28.52130365 21.96240075 -28.01155637 13.86403397 -23.5234375 8.10546875 C-21.76619142 6.5207377 -20.00607784 5.25279158 -18 4 C-17.37867188 3.58878906 -16.75734375 3.17757812 -16.1171875 2.75390625 C-10.8133357 -0.34895442 -6.03595587 -0.44527543 0 0 Z M-21 11 C-24.7040643 18.11950021 -26.12271263 25.15740303 -24 33 C-22.67397647 35.3099038 -22.67397647 35.3099038 -21 37 C-20.34 37 -19.68 37 -19 37 C-18.67 37.99 -18.34 38.98 -18 40 C-11.16962921 43.7048663 -3.64137196 44.04920887 3.6875 41.9375 C7.24329004 39.85769828 9.25472543 37.74865794 11.73828125 34.5234375 C13 33 13 33 15 32 C15.05411124 29.58303128 15.09372278 27.16728213 15.125 24.75 C15.14175781 24.06808594 15.15851563 23.38617188 15.17578125 22.68359375 C15.21213482 18.9391765 15.07944349 16.17647273 13 13 C12.34 13 11.68 13 11 13 C10.76539063 12.23300781 10.53078125 11.46601562 10.2890625 10.67578125 C8.04435397 6.01631052 3.68454466 4.69029962 -1 3 C-8.42531878 1.29067247 -16.22740901 5.30804304 -21 11 Z " fill="#FF8736" transform="translate(200,64)"/>
<path d="M0 0 C0 3.74120699 -0.81299657 4.10981084 -3.375 6.6875 C-6.96492796 10.66180409 -8.43438089 13.70742115 -9 19 C-9.0928125 19.67546875 -9.185625 20.3509375 -9.28125 21.046875 C-9.80146704 28.17384847 -7.1024106 34.68236387 -4 41 C-3.34 41.33 -2.68 41.66 -2 42 C-2 42.66 -2 43.32 -2 44 C-1.21625 44.309375 -0.4325 44.61875 0.375 44.9375 C3 46 3 46 5 47 C7.59441251 47.09889016 10.1560948 47.13894573 12.75 47.125 C13.80574219 47.13080078 13.80574219 47.13080078 14.8828125 47.13671875 C19.02926087 47.1290116 22.9153209 46.80922888 27 46 C27.33 45.01 27.66 44.02 28 43 C29.66047908 41.98975894 31.32797312 40.99101155 33 40 C38.04261683 34.94762956 40.46537791 30.31203481 40.5625 23.125 C40.41351656 19.13608864 39.8947052 16.48504009 38 13 C37.875 10.25 37.875 10.25 38 8 C43.37966235 14.24734983 43.4203095 19.26169541 43.3359375 27.38671875 C42.65282074 34.73419552 39.48602728 39.92114281 34.1875 44.9375 C26.42040586 51.05877865 18.79203332 52.06843529 9 51 C0.20192393 48.6753051 -5.29409882 44.63536239 -9.984375 36.90234375 C-13.56507004 30.19542651 -13.18039432 20.15519972 -11.12890625 12.93359375 C-8.4808706 7.24682866 -4.99664507 3.72299045 0 0 Z " fill="#FF6A07" transform="translate(180,64)"/>
<path d="M0 0 C2.56390502 1.9300772 2.99113542 3.63215756 4.1015625 6.58203125 C5.0915625 6.91203125 6.0815625 7.24203125 7.1015625 7.58203125 C8.29264477 11.15527805 8.38036172 14.19040066 8.4765625 17.95703125 C8.52554688 19.26414062 8.57453125 20.57125 8.625 21.91796875 C7.97632052 26.45872512 6.584887 27.71581109 3.1015625 30.58203125 C2.55371094 31.0925 2.00585938 31.60296875 1.44140625 32.12890625 C-3.43906726 36.31605344 -7.19124063 36.87724332 -13.44140625 36.8046875 C-17.43108072 36.44314307 -21.36210898 35.50017373 -24.8984375 33.58203125 C-25.3934375 32.09703125 -25.3934375 32.09703125 -25.8984375 30.58203125 C-26.5584375 30.58203125 -27.2184375 30.58203125 -27.8984375 30.58203125 C-31.34698784 26.87548463 -31.71692692 23.50039631 -32.01171875 18.59375 C-31.77585485 12.32302355 -30.18284148 6.91171171 -25.73046875 2.37109375 C-16.89163228 -4.69420783 -9.95836411 -4.85585866 0 0 Z M-26.8984375 6.58203125 C-29.98982911 10.98492233 -30.80036142 15.28942277 -29.8984375 20.58203125 C-28.23323797 25.27874787 -25.922102 29.53380057 -21.8984375 32.58203125 C-16.23186951 34.58199642 -9.09293078 34.39480654 -3.5234375 32.33203125 C-0.94079003 30.61026627 1.10706803 28.96008235 3.1015625 26.58203125 C3.1015625 25.92203125 3.1015625 25.26203125 3.1015625 24.58203125 C3.7615625 24.58203125 4.4215625 24.58203125 5.1015625 24.58203125 C7.10862714 18.30995424 6.08440706 12.65449272 4.1015625 6.58203125 C3.4415625 6.58203125 2.7815625 6.58203125 2.1015625 6.58203125 C1.7715625 5.59203125 1.4415625 4.60203125 1.1015625 3.58203125 C0.4415625 3.58203125 -0.2184375 3.58203125 -0.8984375 3.58203125 C-0.8984375 2.92203125 -0.8984375 2.26203125 -0.8984375 1.58203125 C-10.883447 -2.91851135 -19.48313873 -1.43494747 -26.8984375 6.58203125 Z " fill="#FF9956" transform="translate(206.8984375,70.41796875)"/>
<path d="M0 0 C2.69990662 1.79993774 4.5418865 3.083773 6 6 C6.3724496 9.94796574 6.34935635 12.33040033 4.5 15.875 C1.1468501 18.72517741 -1.64227735 19.30322126 -6 19 C-8.93392954 17.78815954 -10.42870266 16.72710571 -12.375 14.25 C-13.31697802 10.85887913 -12.84752199 8.39008797 -12 5 C-8.39073895 0.57574451 -5.69124209 -0.55796491 0 0 Z " fill="#1B1B1B" transform="translate(216,127)"/>
<path d="M0 0 C1.27793565 0.71664627 2.54948691 1.44486999 3.8125 2.1875 C4.740625 2.661875 5.66875 3.13625 6.625 3.625 C10.31934007 6.26381433 11.55367156 8.98747721 12.5 13.375 C12.6546875 15.2621875 12.6546875 15.2621875 12.8125 17.1875 C12.88855469 17.95320313 12.96460938 18.71890625 13.04296875 19.5078125 C13.43709374 26.30380563 12.07210423 31.77923845 7.8125 37.1875 C2.4419097 41.41743396 -3.10452392 42.8659673 -9.8671875 42.484375 C-15.21130145 41.80061631 -19.82377451 40.39612169 -24.1875 37.1875 C-24.6825 35.7025 -24.6825 35.7025 -25.1875 34.1875 C-24.5275 34.1875 -23.8675 34.1875 -23.1875 34.1875 C-22.795625 34.64125 -22.40375 35.095 -22 35.5625 C-17.77407537 39.35126001 -11.83468988 39.59617898 -6.38671875 39.4296875 C-0.82612241 38.81733053 2.61750005 36.68527772 6.125 32.5 C6.59550781 31.87738281 7.06601563 31.25476563 7.55078125 30.61328125 C8.17533203 29.90751953 8.17533203 29.90751953 8.8125 29.1875 C9.4725 29.1875 10.1325 29.1875 10.8125 29.1875 C10.6715651 26.74962615 10.52495458 24.31232147 10.375 21.875 C10.33568359 21.18470703 10.29636719 20.49441406 10.25585938 19.78320312 C9.93715333 14.7084222 9.58556122 11.67032574 5.8125 8.1875 C5.36003906 7.70667969 4.90757812 7.22585937 4.44140625 6.73046875 C0.64405699 3.13345926 -4.06631349 0.94340293 -9.3125 0.8125 C-12.92602208 1.16219569 -15.82852953 1.84391181 -19.1875 3.1875 C-14.77252331 -3.43496503 -6.64281651 -3.27127379 0 0 Z " fill="#FF8E42" transform="translate(204.1875,66.8125)"/>
<path d="M0 0 C0.99 0 1.98 0 3 0 C3.50615298 1.26839526 4.00469099 2.53983102 4.5 3.8125 C4.91765625 4.87404297 4.91765625 4.87404297 5.34375 5.95703125 C6 8 6 8 6 11 C6.66 11 7.32 11 8 11 C8.99 7.7 9.98 4.4 11 1 C11.99 1 12.98 1 14 1 C17 7.625 17 7.625 17 11 C17.66 11 18.32 11 19 11 C19.13277344 10.37351563 19.26554687 9.74703125 19.40234375 9.1015625 C19.57894531 8.28429687 19.75554687 7.46703125 19.9375 6.625 C20.19853516 5.40683594 20.19853516 5.40683594 20.46484375 4.1640625 C21 2 21 2 22 0 C22.99 0 23.98 0 25 0 C24.39124245 4.60416626 23.15277044 8.56483324 21.4375 12.875 C20.98246094 14.02742187 20.52742188 15.17984375 20.05859375 16.3671875 C19.70925781 17.23601562 19.35992187 18.10484375 19 19 C18.34 19 17.68 19 17 19 C15.68 15.7 14.36 12.4 13 9 C10.90217213 11.09782787 10.3490604 12.3799207 9.375 15.125 C9.11460937 15.84945312 8.85421875 16.57390625 8.5859375 17.3203125 C8.39257812 17.87460938 8.19921875 18.42890625 8 19 C7.34 19 6.68 19 6 19 C4.99394407 16.39802798 3.99497475 13.79370638 3 11.1875 C2.57074219 10.08051758 2.57074219 10.08051758 2.1328125 8.95117188 C1.86210937 8.23896484 1.59140625 7.52675781 1.3125 6.79296875 C1.06113281 6.1383667 0.80976563 5.48376465 0.55078125 4.80932617 C0 3 0 3 0 0 Z " fill="#191919" transform="translate(172,127)"/>
<path d="M0 0 C0.90105469 0.02707031 1.80210937 0.05414063 2.73046875 0.08203125 C3.76107422 0.13423828 3.76107422 0.13423828 4.8125 0.1875 C5.71084338 4.66945232 6.30300298 8.01963575 4.5 12.3125 C0.77898589 14.90855636 -1.783459 14.2557549 -6.140625 13.58203125 C-6.81609375 13.45183594 -7.4915625 13.32164063 -8.1875 13.1875 C-8.26871924 11.58417209 -8.32679134 9.97965974 -8.375 8.375 C-8.40980469 7.48167969 -8.44460937 6.58835937 -8.48046875 5.66796875 C-8.1875 3.1875 -8.1875 3.1875 -7 1.375 C-4.55672469 -0.22576658 -2.89489128 -0.11278797 0 0 Z " fill="#FFE4D2" transform="translate(197.1875,80.8125)"/>
<path d="M0 0 C2.31 0 4.62 0 7 0 C7 0.66 7 1.32 7 2 C7.969375 2.2475 8.93875 2.495 9.9375 2.75 C13 4 13 4 13.875 5.6875 C13.91625 6.450625 13.9575 7.21375 14 8 C14.103125 9.134375 14.20625 10.26875 14.3125 11.4375 C13.94636337 15.61145763 12.92210159 17.07789841 10 20 C7.04335481 21.4783226 4.25770263 21.06032783 1 21 C1 20.34 1 19.68 1 19 C0.21625 18.938125 -0.5675 18.87625 -1.375 18.8125 C-4 18 -4 18 -5.3125 15.875 C-6.13868107 12.42006099 -6.32780855 9.54033231 -6 6 C-4.625 4.0625 -4.625 4.0625 -3 3 C-2.34 3 -1.68 3 -1 3 C-0.67 2.01 -0.34 1.02 0 0 Z M-1.8125 5.1875 C-3.41326658 7.63077531 -3.30028797 9.29260872 -3.1875 12.1875 C-3.16042969 13.08855469 -3.13335937 13.98960938 -3.10546875 14.91796875 C-3.07066406 15.60503906 -3.03585938 16.29210937 -3 17 C0.35569148 17.64680313 3.57723231 18.10177244 7 18 C9.93930567 16.30531651 9.93930567 16.30531651 11 13 C11.00513994 9.92117513 10.60425279 7.01469599 10 4 C8.39667209 3.91878076 6.79215974 3.86070866 5.1875 3.8125 C4.29417969 3.77769531 3.40085938 3.74289063 2.48046875 3.70703125 C-0.01044532 3.8142253 -0.01044532 3.8142253 -1.8125 5.1875 Z " fill="#FFD1B2" transform="translate(192,77)"/>
<path d="M0 0 C7 0 7 0 9.9375 1.5625 C12 4 12 4 12.5 7.5625 C12 11 12 11 10.625 12.875 C6.58737119 15.67028148 6.0126354 15 0 15 C0 10.05 0 5.1 0 0 Z " fill="#F7F9F9" transform="translate(321,70)"/>
<path d="M0 0 C4.06270321 2.0313516 5.81185649 3.75477657 8.75 7.125 C9.94882813 8.49011719 9.94882813 8.49011719 11.171875 9.8828125 C12.07679687 10.93082031 12.07679687 10.93082031 13 12 C13.33 8.04 13.66 4.08 14 0 C14.66 0 15.32 0 16 0 C16 6.27 16 12.54 16 19 C11.77215167 15.37613 7.84132903 11.95773294 4 8 C3.67 11.63 3.34 15.26 3 19 C2.01 19 1.02 19 0 19 C0 12.73 0 6.46 0 0 Z " fill="#1A1A1A" transform="translate(114,127)"/>
<path d="M0 0 C3.4375 0.8125 3.4375 0.8125 5.4375 3.8125 C5.25 7.375 5.25 7.375 4.4375 10.8125 C1.4375 12.8125 1.4375 12.8125 -2.125 12.625 C-5.5625 11.8125 -5.5625 11.8125 -7.5625 8.8125 C-7.375 5.25 -7.375 5.25 -6.5625 1.8125 C-3.5625 -0.1875 -3.5625 -0.1875 0 0 Z " fill="#FBFBFB" transform="translate(213.5625,130.1875)"/>
<path d="M0 0 C7 1 7 1 9 3 C8.625 6.625 8.625 6.625 8 10 C7.34 10 6.68 10 6 10 C7.32 12.64 8.64 15.28 10 18 C5.70574125 16.92643531 5.25259529 16.4915227 3 13 C2.67 14.98 2.34 16.96 2 19 C1.34 19 0.68 19 0 19 C0 12.73 0 6.46 0 0 Z " fill="#141414" transform="translate(230,127)"/>
<path d="M0 0 C2.64453125 -0.328125 2.64453125 -0.328125 5.8125 -0.25 C6.85019531 -0.23453125 7.88789063 -0.2190625 8.95703125 -0.203125 C11.72921322 -0.01807563 14.29580632 0.38018481 17 1 C17.33 2.65 17.66 4.3 18 6 C16.68 5.67 15.36 5.34 14 5 C14 4.34 14 3.68 14 3 C13.01 3 12.02 3 11 3 C11 2.34 11 1.68 11 1 C7.7 1 4.4 1 1 1 C0.34 2.32 -0.32 3.64 -1 5 C-1.69609375 5.76699219 -2.3921875 6.53398438 -3.109375 7.32421875 C-5.50818898 10.7192344 -5.41595909 12.70501245 -5.25 16.8125 C-5.21390625 17.97394531 -5.1778125 19.13539062 -5.140625 20.33203125 C-5.09421875 21.21246094 -5.0478125 22.09289062 -5 23 C-4.01 23.33 -3.02 23.66 -2 24 C-2 24.66 -2 25.32 -2 26 C1.60993172 27.13480527 4.9842327 27.10015767 8.75 27.0625 C9.92046875 27.05347656 11.0909375 27.04445313 12.296875 27.03515625 C13.18890625 27.02355469 14.0809375 27.01195313 15 27 C13 29 13 29 10 30 C7.767731 29.91382274 5.53761514 29.76077759 3.3125 29.5625 C2.13300781 29.46066406 0.95351562 29.35882813 -0.26171875 29.25390625 C-1.16535156 29.17011719 -2.06898438 29.08632812 -3 29 C-3 28.01 -3 27.02 -3 26 C-3.66 26 -4.32 26 -5 26 C-5.33 23.69 -5.66 21.38 -6 19 C-6.66 19 -7.32 19 -8 19 C-8.92069233 9.26453113 -8.92069233 9.26453113 -6.734375 6.26171875 C-5.125 5 -5.125 5 -2 3 C-1.34 2.01 -0.68 1.02 0 0 Z " fill="#FFB684" transform="translate(189,73)"/>
<path d="M0 0 C0.66 0 1.32 0 2 0 C6.81812322 7.74341233 7.35554559 16.18446513 6 25 C3.41501079 30.33902403 0.25439394 33.41771238 -5 36 C-5.33 36.66 -5.66 37.32 -6 38 C-11.59381333 40.72131459 -17.91547886 40.55686062 -24 40 C-26.87109375 38.984375 -26.87109375 38.984375 -29 38 C-29 37.67 -29 37.34 -29 37 C-27.73285156 37.06960937 -26.46570313 37.13921875 -25.16015625 37.2109375 C-13.10043507 37.99570546 -13.10043507 37.99570546 -2.6015625 32.89453125 C2.10777522 27.32372932 3.57369147 21.71708273 3.26953125 14.49609375 C2.72953523 9.49526105 1.58810557 4.76431671 0 0 Z " fill="#FF7F2A" transform="translate(213,72)"/>
<path d="M0 0 C2.97 0 5.94 0 9 0 C9.33 0.99 9.66 1.98 10 3 C7.69 3 5.38 3 3 3 C3 4.32 3 5.64 3 7 C4.98 7 6.96 7 9 7 C9 7.99 9 8.98 9 10 C7.02 10 5.04 10 3 10 C3 11.98 3 13.96 3 16 C5.31 16 7.62 16 10 16 C9.67 16.99 9.34 17.98 9 19 C6.03 19 3.06 19 0 19 C0 12.73 0 6.46 0 0 Z " fill="#262626" transform="translate(139,127)"/>
<path d="M0 0 C0.66 0 1.32 0 2 0 C2.33 1.98 2.66 3.96 3 6 C3.39832031 5.566875 3.79664063 5.13375 4.20703125 4.6875 C4.73683594 4.130625 5.26664063 3.57375 5.8125 3 C6.33457031 2.443125 6.85664063 1.88625 7.39453125 1.3125 C9 0 9 0 12 0 C10.55746343 3.36591866 8.66735273 5.51047079 6 8 C7.00445663 10.24071094 7.87754985 11.87754985 9.625 13.625 C10.07875 14.07875 10.5325 14.5325 11 15 C11 15.66 11 16.32 11 17 C11.66 17 12.32 17 13 17 C13 17.66 13 18.32 13 19 C10.29068581 18.84518205 8.53415961 18.51827919 6.5546875 16.59765625 C5.32320358 15.10228292 4.1570163 13.5537076 3 12 C2.67 14.31 2.34 16.62 2 19 C1.34 19 0.68 19 0 19 C0 12.73 0 6.46 0 0 Z " fill="#0E0E0E" transform="translate(248,127)"/>
<path d="M0 0 C2.875 1.02734375 2.875 1.02734375 5 2 C5 2.66 5 3.32 5 4 C3.83082031 3.98839844 2.66164062 3.97679688 1.45703125 3.96484375 C-0.09114423 3.95546087 -1.63932145 3.9463612 -3.1875 3.9375 C-3.95642578 3.92912109 -4.72535156 3.92074219 -5.51757812 3.91210938 C-9.48526789 3.89508066 -13.12571234 4.01395885 -17 5 C-12.60280496 -1.2817072 -7.24410994 -0.91514687 0 0 Z M-18 5 C-18 5.99 -18 6.98 -18 8 C-18.66 8.66 -19.32 9.32 -20 10 C-21.4020417 16.71623203 -21.08088705 22.51252859 -19 29 C-22.96287071 25.57752075 -23.87680304 22.2730353 -24.375 17.125 C-24.27017315 12.52135423 -22.59911816 9.74578793 -20 6 C-19.34 5.67 -18.68 5.34 -18 5 Z " fill="#FFA66B" transform="translate(201,70)"/>
<path d="M0 0 C0 0.66 0 1.32 0 2 C-0.66 2.391875 -1.32 2.78375 -2 3.1875 C-4.36969246 4.93295512 -4.36969246 4.93295512 -4.375 8.375 C-4.02617681 11.74695746 -3.71401775 14.08616982 -2 17 C0.04105639 17.88693303 0.04105639 17.88693303 2 18 C2 18.66 2 19.32 2 20 C4.97 19.67 7.94 19.34 11 19 C10.67 19.66 10.34 20.32 10 21 C7.32356043 21.89214652 5.74615622 22.13540211 3 22.125 C1.9790625 22.12886719 1.9790625 22.12886719 0.9375 22.1328125 C-1 22 -1 22 -4 21 C-6.42936835 17.35594748 -6.32947342 15.401183 -6.375 11.0625 C-6.41753906 9.22365234 -6.41753906 9.22365234 -6.4609375 7.34765625 C-6 4 -6 4 -4.1015625 1.55859375 C-2 0 -2 0 0 0 Z M15 7 C15.66 7 16.32 7 17 7 C17.1875 10.375 17.1875 10.375 17 14 C16.01 14.66 15.02 15.32 14 16 C14.33 13.03 14.66 10.06 15 7 Z M12 16 C12.66 16.33 13.32 16.66 14 17 C13.01 17.66 12.02 18.32 11 19 C11.33 18.01 11.66 17.02 12 16 Z " fill="#FFC6A0" transform="translate(191,78)"/>
<path d="M0 0 C1.31226563 0.00644531 2.62453125 0.01289062 3.9765625 0.01953125 C7.44821476 0.19111866 9.49974245 0.29946497 11.98046875 2.81640625 C12.76357422 3.77353516 12.76357422 3.77353516 13.5625 4.75 C14.09230469 5.39066406 14.62210938 6.03132813 15.16796875 6.69140625 C15.56628906 7.18511719 15.96460938 7.67882812 16.375 8.1875 C15.385 8.5175 14.395 8.8475 13.375 9.1875 C13.024375 8.754375 12.67375 8.32125 12.3125 7.875 C9.59014365 5.50391544 6.72741784 4.5158165 3.375 3.1875 C3.375 2.5275 3.375 1.8675 3.375 1.1875 C-6.49204713 1.4140919 -13.21209056 4.73109501 -20.625 11.1875 C-18.82823622 6.33623779 -14.91467713 3.35849481 -10.40234375 1.05078125 C-6.84397697 -0.05526525 -3.72096089 -0.04036545 0 0 Z " fill="#FF781E" transform="translate(196.625,62.8125)"/>
<path d="M0 0 C3.63 0 7.26 0 11 0 C11 0.99 11 1.98 11 3 C9.68 3 8.36 3 7 3 C7 8.28 7 13.56 7 19 C6.01 18.67 5.02 18.34 4 18 C4 13.05 4 8.1 4 3 C2.68 3 1.36 3 0 3 C0 2.01 0 1.02 0 0 Z " fill="#222222" transform="translate(155,127)"/>
<path d="M0 0 C0.33 0.99 0.66 1.98 1 3 C-0.29296875 5.0078125 -0.29296875 5.0078125 -2.1875 7.125 C-2.79980469 7.82882813 -3.41210938 8.53265625 -4.04296875 9.2578125 C-7.74732047 12.55549886 -12.04514953 12.26579109 -16.8046875 12.234375 C-19.75166828 11.91975072 -21.67887495 10.79700004 -24 9 C-20.91691277 8.07649461 -18.32920254 7.97527091 -15.125 8.125 C-10.63987638 8.15797885 -7.77831122 7.60883394 -4 5 C-1.65674336 2.44860147 -1.65674336 2.44860147 0 0 Z " fill="#FFA263" transform="translate(210,95)"/>
<path d="M0 0 C1.875 0.6875 1.875 0.6875 2.875 1.6875 C3.0625 4.125 3.0625 4.125 2.875 6.6875 C2.215 7.3475 1.555 8.0075 0.875 8.6875 C-3.68055556 8.13194444 -3.68055556 8.13194444 -5.125 6.6875 C-5.375 4.25 -5.375 4.25 -5.125 1.6875 C-2.125 -0.3125 -2.125 -0.3125 0 0 Z " fill="#5E5E5E" transform="translate(350.125,62.3125)"/>
<path d="M0 0 C0.33 0.66 0.66 1.32 1 2 C-2.83248869 8.43858099 -7.65255747 13.75378186 -15 16 C-18.55078125 16.1953125 -18.55078125 16.1953125 -22.3125 16.125 C-23.56675781 16.10695313 -24.82101563 16.08890625 -26.11328125 16.0703125 C-27.06589844 16.04710938 -28.01851562 16.02390625 -29 16 C-29 15.67 -29 15.34 -29 15 C-28.20335937 14.93941406 -27.40671875 14.87882812 -26.5859375 14.81640625 C-18.75667303 14.20332134 -18.75667303 14.20332134 -11 13 C-10.67 12.01 -10.34 11.02 -10 10 C-9.2575 9.5875 -8.515 9.175 -7.75 8.75 C-4.04671788 6.39336592 -2.41093141 3.65083898 0 0 Z " fill="#FF7417" transform="translate(218,97)"/>
<path d="M0 0 C3.83473284 -0.35671933 5.55342875 -0.29771416 8.8125 1.875 C11.71224433 4.69189449 11.96780934 5.39910775 12.1875 9.5 C12 13 12 13 10 15 C9.85304687 14.30132812 9.70609375 13.60265625 9.5546875 12.8828125 C8.87432471 10.12226003 8.1732514 7.59236798 7 5 C3.99405579 3.46853622 3.99405579 3.46853622 1 3 C0.67 2.01 0.34 1.02 0 0 Z " fill="#1D1D1D" transform="translate(210,127)"/>
<path d="M0 0 C0.99 0.33 1.98 0.66 3 1 C3 1.66 3 2.32 3 3 C3.66 3 4.32 3 5 3 C7.12957093 9.52181096 8.20471801 14.59056398 5 21 C5 17.04 5 13.08 5 9 C4.34 9 3.68 9 3 9 C3 7.68 3 6.36 3 5 C2.34 5 1.68 5 1 5 C0.67 3.35 0.34 1.7 0 0 Z " fill="#FFA76D" transform="translate(206,74)"/>
<path d="M0 0 C0.99 0 1.98 0 3 0 C3.50615298 1.26839526 4.00469099 2.53983102 4.5 3.8125 C4.91765625 4.87404297 4.91765625 4.87404297 5.34375 5.95703125 C6 8 6 8 6 11 C6.66 11 7.32 11 8 11 C8 11.66 8 12.32 8 13 C6.68 13.33 5.36 13.66 4 14 C3.32739649 12.23141309 2.66211605 10.46003984 2 8.6875 C1.62875 7.70136719 1.2575 6.71523437 0.875 5.69921875 C0 3 0 3 0 0 Z " fill="#272727" transform="translate(172,127)"/>
<path d="M0 0 C2.97 0 5.94 0 9 0 C9 0.66 9 1.32 9 2 C6.69 2 4.38 2 2 2 C2 3.32 2 4.64 2 6 C3.98 6 5.96 6 8 6 C8 6.33 8 6.66 8 7 C5.36 7 2.72 7 0 7 C0 4.69 0 2.38 0 0 Z " fill="#232323" transform="translate(140,128)"/>
<path d="M0 0 C1.12377697 3.30435084 0.89554742 5.0506862 -0.4375 8.25 C-0.72496094 8.95640625 -1.01242188 9.6628125 -1.30859375 10.390625 C-1.53675781 10.92171875 -1.76492187 11.4528125 -2 12 C-2.66 12 -3.32 12 -4 12 C-4.33 9.69 -4.66 7.38 -5 5 C-4.01 5.33 -3.02 5.66 -2 6 C-1.855625 5.195625 -1.71125 4.39125 -1.5625 3.5625 C-1 1 -1 1 0 0 Z " fill="#0F0F0F" transform="translate(182,134)"/>
<path d="M0 0 C0.598125 0.226875 1.19625 0.45375 1.8125 0.6875 C1.173125 0.8525 0.53375 1.0175 -0.125 1.1875 C-2.34869241 2.469286 -2.34869241 2.469286 -2.67578125 4.6015625 C-2.9150978 6.62325155 -3.05643028 8.65591939 -3.1875 10.6875 C-2.5275 10.6875 -1.8675 10.6875 -1.1875 10.6875 C-1.1875 11.3475 -1.1875 12.0075 -1.1875 12.6875 C-2.5075 12.6875 -3.8275 12.6875 -5.1875 12.6875 C-5.26871924 11.08417209 -5.32679134 9.47965974 -5.375 7.875 C-5.40980469 6.98167969 -5.44460937 6.08835937 -5.48046875 5.16796875 C-5.1875 2.6875 -5.1875 2.6875 -3.8125 0.84375 C-2.1875 -0.3125 -2.1875 -0.3125 0 0 Z " fill="#FFDDC5" transform="translate(194.1875,81.3125)"/>
<path d="M0 0 C-0.556875 0.226875 -1.11375 0.45375 -1.6875 0.6875 C-5.71969057 2.97604059 -8.45058599 6.17587898 -11 10 C-11.31785906 6.50355037 -11.39644605 4.602598 -9.4375 1.625 C-6.18317497 -0.54455002 -3.82869586 -0.29451507 0 0 Z " fill="#0E0E0E" transform="translate(215,128)"/>
<path d="M0 0 C7.26153846 0.36923077 7.26153846 0.36923077 11 3.5625 C11.99 4.7690625 11.99 4.7690625 13 6 C12.01 6.33 11.02 6.66 10 7 C9.649375 6.566875 9.29875 6.13375 8.9375 5.6875 C6.21514365 3.31641544 3.35241784 2.3283165 0 1 C0 0.67 0 0.34 0 0 Z " fill="#FF7F29" transform="translate(200,65)"/>
<path d="M0 0 C0.99 0 1.98 0 3 0 C4.32 2.97 5.64 5.94 7 9 C3 8 3 8 1.25 6.1875 C0 4 0 4 0 0 Z " fill="#121212" transform="translate(233,136)"/>
<path d="M0 0 C0.75 1.6875 0.75 1.6875 1 4 C-0.625 6.75 -0.625 6.75 -3 9 C-5.75 9.3125 -5.75 9.3125 -8 9 C-6.8553125 7.88625 -6.8553125 7.88625 -5.6875 6.75 C-3.5606298 4.5736677 -1.7440044 2.47832204 0 0 Z " fill="#FFDDC5" transform="translate(202,86)"/>
<path d="M0 0 C2.97 0.495 2.97 0.495 6 1 C6.33 3.31 6.66 5.62 7 8 C6.96877057 6.03243548 6.96877057 6.03243548 6 4 C3.00384054 2.6954344 3.00384054 2.6954344 0 2 C0 1.34 0 0.68 0 0 Z " fill="#FFC49D" transform="translate(199,77)"/>
<path d="M0 0 C0.99 0 1.98 0 3 0 C2.67 1.98 2.34 3.96 2 6 C0.68 6.33 -0.64 6.66 -2 7 C-1.34 4.69 -0.68 2.38 0 0 Z " fill="#323232" transform="translate(194,127)"/>
<path d="M0 0 C1.485 0.99 1.485 0.99 3 2 C3 2.66 3 3.32 3 4 C3.66 4 4.32 4 5 4 C5 4.66 5 5.32 5 6 C2.5625 5.625 2.5625 5.625 0 5 C-0.33 4.34 -0.66 3.68 -1 3 C-0.67 2.01 -0.34 1.02 0 0 Z " fill="#424242" transform="translate(256,140)"/>
<path d="M0 0 C1.32 0.33 2.64 0.66 4 1 C4 2.32 4 3.64 4 5 C2.68 5 1.36 5 0 5 C0 3.35 0 1.7 0 0 Z " fill="#E7E7E7" transform="translate(232,130)"/>
<path d="M0 0 C0.598125 0.350625 1.19625 0.70125 1.8125 1.0625 C1.4825 2.3825 1.1525 3.7025 0.8125 5.0625 C0.379375 4.60875 -0.05375 4.155 -0.5 3.6875 C-2.29548342 1.86225666 -2.29548342 1.86225666 -5.1875 0.0625 C-2.1875 -0.9375 -2.1875 -0.9375 0 0 Z " fill="#0E0E0E" transform="translate(237.1875,128.9375)"/>
<path d="M0 0 C2.875 -0.125 2.875 -0.125 6 0 C6.66 0.66 7.32 1.32 8 2 C7.67 2.66 7.34 3.32 7 4 C4.03 3.505 4.03 3.505 1 3 C0.67 2.01 0.34 1.02 0 0 Z " fill="#2F2F2F" transform="translate(210,127)"/>
</svg>
