<svg version="1.2" xmlns="http://www.w3.org/2000/svg" viewBox="0 0 1541 1603" width="1541" height="1603">
	<title>2881</title>
	<style>
		.s0 { fill: #05aaaa } 
		.s1 { fill: #0099cc } 
	</style>
	<path class="s0" d="m1150 793.1l17.4 17.4c21.6 14.7 41.8 32.1 59.2 51.6 17.4 20.2 32 41.7 43.1 65.4 11.8 23.7 20.2 48.7 25.1 74.5 4.8 25.7 6.2 52.2 4.8 78.6 0 166.4-149.6 286.8-310.4 286.8v235.3c287.5 0 551.2-206.7 551.2-499.8q0-41.1-6.2-82.1-7-41.8-20.2-80.8-13.2-39.7-32-76.5-19.5-36.9-44.6-70.4l34.1-40.3c17.4-34.1 17.4-68.9 17.4-194.9v-551.4h-741.2v436.5h-229.6v240.9h476.7v-430.2h264.5v367.5c0 0 11.1 103-97.5 171.9z"/>
	<path class="s1" d="m518.1 6.5h-80.8c-32-0.7-64 1.4-95.3 7.7-31.3 5.6-62.7 15.3-91.9 27.1-29.9 12.6-57.8 27.9-84.2 46-26.4 18.1-50.8 39.7-73.1 62.6-86.3 103.1-91.8 194.9-91.8 344.6v1102.7h746.7v-425.4h241.5v-240.8h-476.7v436.4h-281.9v-918.8c0 0-11.1-195.6 229.7-195.6h57.8v-252.7z"/>
</svg>