<svg version="1.2" xmlns="http://www.w3.org/2000/svg" viewBox="0 0 1552 1535" width="1552" height="1535">
	<title>0011</title>
	<style>
		.s0 { fill: #ffffff } 
		.s1 { fill: #ff0000 } 
	</style>
	<g id="Page-1">
		<g id="hase_logo_dark">
			<g id="Bilingual-1-line-RGB-Copy">
				<path id="Path" fill-rule="evenodd" class="s0" d="m776 1534c-429.1 0-776-342.8-776-767 0-424.1 346.9-767 776-767 429.1 0 776 342.9 776 767 0 424.2-346.9 767-776 767z"/>
				<path id="Shape" class="s1" d="m776 0c-428.8 0-776 343.2-776 767 0 422.8 347.2 766 776 767 428.8 0 776-343.2 776-767 0-423.8-347.2-767-776-767zm0 1435.6c-273.6 0-520.3-163.2-625.8-412.9-104.4-249.7-46.7-538.2 146.3-729.2 194-192 485.5-248.7 738.2-145.3 253.7 103.5 417.8 347.2 418.8 617.8 0 178.1-71.6 348.2-199 473.6-126.3 125.3-299.4 196-478.5 196z"/>
				<path id="Shape" class="s1" d="m776 128.3c-261.7-1-497.4 155.2-596.9 393-100.5 238.8-44.8 513.3 139.3 696.4 185 182 462.6 236.8 704.3 138.3 241.8-98.5 399-331.3 399-590 0-169.1-68.7-331.3-189.1-450.6-121.3-120.4-285.5-187.1-456.6-187.1zm-15.9 266.7h-46.8c-8.9 0-16.9 7.9-16.9 16.9 0 8.9 8 15.9 16.9 15.9h46.8v247.7h-35.8c-4 0-8 2-11 5-3 3.9-5 7.9-5 11.9 0 5 2 9 5 11.9 3 3 7 5 11 5h35.8v138.3h-34.8c0 0 11.9 36.8-98.5 345.2 0 0-115.4 0-210.9 0 160.1-335.2 100.4-738.2 100.4-738.2h158.2l-27.8-207.9h113.4zm164.1 797.9c-111.4-309.4-98.5-345.2-98.5-345.2h-33.8v-139.3h34.8c9 0 16-7 16-15.9 0-4-1-8-4-12-4-2.9-8-4.9-12-4.9h-34.8v-247.8h45.8c9.9 0 16.9-6.9 16.9-15.9 0-8.9-7-16.9-16.9-16.9h-45.8v-148.2h111.4l-26.8 207.9h158.2c0 0-59.7 401.9 100.4 738.2-95.5 1-210.9 0-210.9 0z"/>
				<path id="Shape" class="s1" d="m661.6 877.4q-1 2-3 3l14.9 53.8c1 3.9 0 7.9-2 11.9-2 3-4.9 6-8.9 7-4 1-9 1-12-1-3.9-2-5.9-6-6.9-10l-13-48.7q-3.9 0-7.9 0-3 0-6 0l-12.9 48.7c-1 4-3 8-7 10-3 2-6.9 2-10.9 1-4-1-8-4-10-7-2-4-2-8-1-11.9l14-53.8c-1-1-3-2-4-3-10-10.9-15.9-24.8-14.9-39.7v-223.9c0-28.8 23.8-52.7 52.7-52.7 29.8 0 53.7 23.9 53.7 52.7v224.8c1 14-5 27.9-15.9 38.8zm-61.7-170.1v130.4c0 5.9 2 12.9 7 16.9 4 4.9 9.9 6.9 15.9 7.9 7-1 12.9-3 17.9-7.9 4-5 7-11 7-16.9v-130.4zm47.7-30.8v-62.7c0-13.9-9.9-24.9-23.9-24.9-12.9 0-23.8 11-23.8 23.9v63.7z"/>
				<path id="Shape" class="s1" d="m993.9 692.4l-64.7-131.3-64.7 131.3 49.8 100.5v145.2c0 4 1 8 4 11 3 3 6.9 5 10.9 5 4 0 8-2 11-5 1.9-3 3.9-7 3.9-11v-146.2zm-64.6 64.7l-31.9-64.7 31.9-63.7 31.8 63.7z"/>
			</g>
		</g>
	</g>
</svg>