<svg width="200" height="140" xmlns="http://www.w3.org/2000/svg">

 <g>
  <title>background</title>
  <rect fill="none" id="canvas_background" height="142" width="202" y="-1" x="-1"/>
 </g>
 <g>
  <title>Layer 1</title>
  <g id="svg_5">
   <path id="svg_1" fill="#00a2e5" d="m198.100006,71.199997l0,-2.399986l-0.599991,0l-0.700012,1.600006l-0.699997,-1.600006l-0.599991,0l0,2.399986l0.399994,0l0,-1.799988l0.699997,1.599991l0.5,0l0.699997,-1.599991l0,1.799988l0.300003,0zm-4,0l0,-2l0.800003,0l0,-0.399986l-2,0l0,0.399986l0.800003,0l0,2l0.399979,0l0.000015,0z"/>
   <path id="svg_2" fill="#7375cf" d="m127,118.600006l-54.099998,0l0,-97.200012l54.099998,0l0,97.200012z"/>
   <path id="svg_3" fill="#eb001b" d="m76.400002,70c0,-19.700005 9.199997,-37.299999 23.599998,-48.599998c-10.5,-8.299999 -23.799995,-13.200001 -38.200005,-13.200001c-34.099995,0 -61.799995,27.700008 -61.799995,61.799999s27.700001,61.800018 61.799995,61.800018c14.400009,0 27.700005,-4.900032 38.200005,-13.200027c-14.400002,-11.300003 -23.599998,-28.900009 -23.599998,-48.600014"/>
   <path id="svg_4" fill="#00a2e5" d="m200,70c0,34.100006 -27.699997,61.800018 -61.800003,61.800018c-14.399986,0 -27.699997,-4.900032 -38.199997,-13.200027c14.400002,-11.300003 23.599998,-28.899994 23.599998,-48.600014s-9.199997,-37.299995 -23.599998,-48.599991c10.5,-8.299999 23.799995,-13.199997 38.199997,-13.199997c34.100021,0 61.800003,27.700012 61.800003,61.799988"/>
  </g>
 </g>
</svg>