<svg width="800" height="800" xmlns="http://www.w3.org/2000/svg" version="1.1" class="svg-icon">

 <g>
  <title>Layer 1</title>
  <path id="svg_1" fill="#FFFFFF" d="m224,1l576,0c123.6,0 224,100.4 224,224l0,576c0,123.6 -100.4,224 -224,224l-576,0c-123.6,0 -224,-100.4 -224,-224l0,-576c0,-123.6 100.4,-224 224,-224z"/>
  <path id="svg_2" fill="#D60110" d="m247.6,653.00002c22.8,12.8 48,22.8 74.4,29.2l0,50.8c-60.8,-12.4 -116,-40.4 -160,-80l85.6,0zm-89.6,-96c12.8,20.4 27.2,39.2 44,56l-70,0c-12.8,-17.6 -24.4,-36.4 -34,-56l60,0zm422.4,-383.2c16,-20.4 25.6,-45.2 25.6,-45.2c82.4,62.4 136,160.8 136,271.6c0,163.6 -116.4,300.8 -270.4,332.8l0.4,-52.8c125.6,-31.2 218.8,-145.2 218.8,-280c0,-29.2 -4.4,-57.2 -12.4,-83.6l-135.2,0l-30.4,28l73.2,80.8l-69.6,0l-41.6,-46l-44,45.6l0,41.6l211.2,0s-6.8,33.2 -22.4,51.6l-188.8,0l0,41.6l160.4,0s-17.2,27.6 -56.8,51.6l-103.6,0l0,128c-9.6,0.8 -19.6,1.2 -29.2,1.2c-9.6,0 -19.2,-0.4 -28.8,-0.8l0,-128l-102.4,0c-39.2,-23.6 -56.8,-51.6 -56.8,-51.6l159.6,0l0,-41.6l-188,0c-15.6,-18.4 -22.4,-51.6 -22.4,-51.6l210.4,0l0,-41.6l-44.4,-45.6l-40.8,45.2l-69.2,0l72.4,-80.4l-30.4,-28.8l-134.8,0c-8,26.4 -12.4,54.8 -12.4,83.6c0,8.8 0.4,17.2 1.2,25.6l-52,0c-0.8,-8.4 -0.8,-16.8 -0.8,-25.6c0,-110.8 53.6,-210 136,-272c0,0 11.6,27.6 25.6,45.2c-31.2,24.8 -57.6,56 -76.4,91.6l226.4,0l0,-44.8c-64.4,-10.4 -117.6,-55.6 -140,-115.2c0,0 38.8,-19.2 44,-20.8l2.8,-1.2c14,42 49.6,74.4 93.2,84.8l0,-106.4c9.6,-0.8 19.6,-1.2 29.2,-1.2c9.6,0 19.2,0.4 28.8,0.8l0,106.8c44,-10 79.6,-42.4 94,-84.4c0,0 40.8,17.6 46.4,22.4c-22.8,59.6 -76,104 -140.4,114.4l0,44.4l226,0c-19.6,-34 -45.6,-65.2 -77.2,-90zm-178,206.4l68.8,-66.4l-139.6,0l70.8,66.4zm-290.4,88.8c4.4,19.2 10.4,38 18,56l-56.8,0c-6.4,-18 -11.2,-36.8 -15.2,-56l54,0z"/>
 </g>
</svg>