<svg version="1.2" xmlns="http://www.w3.org/2000/svg" viewBox="0 0 1549 1635" width="1549" height="1635"><style>.a{fill:#e30513}</style><path fill-rule="evenodd" class="a" d="m1548.7 817.6c0 451.1-346.7 817-774.2 817-256.7 0-484.5-132.2-625.2-335.5l407 1.1c258.2 0 409-89.6 417.5-94.8 133.7-71.9 225.6-218.5 225.6-387.8 0-240-184.5-434.8-411.9-434.8-46.7 0-91.5 8.2-133.4 23.3l-103.7-124.8-145.9-181.1c110-63.3 235.9-99.6 370-99.6 427.5 0 774.2 365.9 774.2 817zm-1228.7-661.1l269.3 279.6c-43.7 25.6-82.6 59.3-114.8 98.9l-311.2-218.5c44.9-60.7 97.5-114.4 156.7-160zm185.6 475.6l324.8 194.8v95.2l-381.5-155.2c11.1-54.8 31.1-99.3 56.7-134.8zm160.8-116l164 170v98.9l-283.7-199.2c36.3-33 78.2-55.2 119.7-69.7zm-627.5 555.9c-24.8-80.3-38.5-165.5-38.5-254.4 0-43.7 3.3-86.3 9.6-127.8l363.7 120.8c0.8 150.7 89.7 248.1 89.7 248.1-20-88.1-26.7-162.9-23-225.9l390 129.6v109.6zm74.9-679.6l316.3 198.2c-26.3 44.4-44.8 94.4-53.3 148.5l-346-147c19.3-70.8 47.4-138.2 83-199.7zm296.3 774.5h336.3l-71.5 79.2h-558.9c-23-39.2-43-81.1-59.3-124.4h313z"/></svg>