<svg version="1.2" xmlns="http://www.w3.org/2000/svg" viewBox="0 0 1550 1529" width="1550" height="1529">
	<title>5876</title>
	<style>
		.s0 { fill: #b82b22 } 
	</style>
	<path class="s0" d="m0.5 764.7c0 18.9 0 38.6 2.1 57.5h213.5v6.6c23.4 203.9 158.9 373.7 344 450.9v-381.7h-116.6v134.7l-12.4-15.2c-40.8-53.2-69.2-118.1-80.2-186.5l-2.2-8.8h277.7v558l-8.8-2.2c-233.9-59.7-416.8-246.2-468.5-480h-137.7c62.6 345.3 363.6 611.1 730.8 630.1v-821.7h-391.3l2.2-8c10.9-69.2 38.6-133.3 80.2-189.4l12.4-16.7v134.7h116.5v-375.1c-185 77.2-320.6 246.9-344.6 450.9v5.8h-79.4v-5.8c28.4-268.8 223.7-485.2 481.6-549.3l8.7-2.2v480.1h115.9v-630.8c-414.6 19.6-743.9 354-743.9 764.1zm1455.8 0l86-115.8q9.4-13.1 6.5-25.5c-67-341.7-363.6-605.4-728.6-622.8v1527.5c365-16.8 659.4-280.5 728.6-622.1q2.9-12.4-6.5-25.5zm-40.8 128.9c-49.6 236.1-234.7 422.5-470.7 482.3l-8.8 2.1v-557.2h204l53.9 72.8-2.1 2.2c-15.3 43-36.5 83.8-62 120.2l-13.1 14.6v-134.8h-116.6v379.5c155.2-64.1 275.5-193 322.8-351.8 2.2-8.7 2.2-19.7-4.4-27.7l-56.1-75h101.3l51.8 68.5zm-49.6-188.7l-2.2 2.2h-185.1l-59.7-81.6v-131.1l12.4 17.5c28.4 36.4 49.5 75 62.6 118h139.9c-42.9-171.9-167.5-311.8-331.5-380.3v375.9q0 9.5 6.6 18.9l45.1 60.5h-120.2v-553.6l11 2.2c236 59.7 421.1 248.4 470.7 484.4v2.2z"/>
</svg>