<svg version="1.2" xmlns="http://www.w3.org/2000/svg" viewBox="0 0 950 1510" width="950" height="1510">
	<title>standdd-svg</title>
	<style>
		.s0 { fill: #38d200 } 
		.s1 { fill: #0473ea } 
	</style>
	<path id="Layer" fill-rule="evenodd" class="s0" d="m541.5 441.8l169.1 110c22.8 14.7 46.8 24.9 78.3 24.9 74.6 0 135.1-60.4 135.1-134.9 0-74.5-60.5-134.9-135.1-134.9-32.5 0-55.7 10.3-78.3 24.9zm-438 634.1l633.6 411.9c61.7 39.9 147.8 25.5 189.7-39.9 40.8-63.7 23.4-148.2-40-189.5l-822.3-534.7c0 0-84.3 102.3-58.7 221.6 18.2 85 97.7 130.6 97.7 130.6z"/>
	<path id="Layer" fill-rule="evenodd" class="s1" d="m136.8 248.8l346.4-226.4c63.5-41.2 148.4-23.2 189.7 40.2 41.3 63.4 23.3 148.2-40.2 189.4l-292 189.8 497.5 323.5c0 0 89.5 51.3 107.2 137.7 24.6 120.7-58.6 220-58.6 220l-749.9-487.6c0 0-97.1-58.6-97.1-193.9 0-134.9 97-192.7 97-192.7zm76.5 1235.9c-22.5 14.7-45.7 24.9-78.2 24.9-74.6 0-135.1-60.4-135.1-134.9 0-74.5 60.5-134.9 135.1-134.9 31.5 0 55.4 10.3 78.2 24.9l169.2 110z"/>
</svg>